<mxfile host="app.diagrams.net" agent="Mozilla/5.0 (Windows NT 10.0; Win64; x64) AppleWebKit/537.36 (KHTML, like Gecko) Chrome/135.0.0.0 Safari/537.36 Edg/135.0.0.0" version="26.2.10">
  <diagram id="ONeqHneyHN-IDyQXoc-o" name="Page-1">
    <mxGraphModel dx="1843" dy="1190" grid="0" gridSize="10" guides="1" tooltips="1" connect="1" arrows="0" fold="1" page="0" pageScale="1" pageWidth="850" pageHeight="1100" background="light-dark(#1f196b, #121212)" math="0" shadow="0">
      <root>
        <mxCell id="0" />
        <mxCell id="1" parent="0" />
        <mxCell id="mXVCurrykyvoNQEbf8Xi-1" value="book_language" style="shape=table;startSize=30;container=1;collapsible=1;childLayout=tableLayout;fixedRows=1;rowLines=0;fontStyle=1;align=center;resizeLast=1;html=1;labelBackgroundColor=none;fillColor=#F45B69;strokeColor=#028090;fontColor=#E4FDE1;" parent="1" vertex="1">
          <mxGeometry x="-2" y="-46" width="125" height="120" as="geometry" />
        </mxCell>
        <mxCell id="mXVCurrykyvoNQEbf8Xi-5" value="" style="shape=tableRow;horizontal=0;startSize=0;swimlaneHead=0;swimlaneBody=0;fillColor=none;collapsible=0;dropTarget=0;points=[[0,0.5],[1,0.5]];portConstraint=eastwest;top=0;left=0;right=0;bottom=0;labelBackgroundColor=none;strokeColor=#028090;fontColor=#E4FDE1;" parent="mXVCurrykyvoNQEbf8Xi-1" vertex="1">
          <mxGeometry y="30" width="125" height="30" as="geometry" />
        </mxCell>
        <mxCell id="mXVCurrykyvoNQEbf8Xi-6" value="" style="shape=partialRectangle;connectable=0;fillColor=none;top=0;left=0;bottom=0;right=0;editable=1;overflow=hidden;whiteSpace=wrap;html=1;labelBackgroundColor=none;strokeColor=#028090;fontColor=#E4FDE1;" parent="mXVCurrykyvoNQEbf8Xi-5" vertex="1">
          <mxGeometry width="30" height="30" as="geometry">
            <mxRectangle width="30" height="30" as="alternateBounds" />
          </mxGeometry>
        </mxCell>
        <mxCell id="mXVCurrykyvoNQEbf8Xi-7" value="language_id" style="shape=partialRectangle;connectable=0;fillColor=none;top=0;left=0;bottom=0;right=0;align=left;spacingLeft=6;overflow=hidden;whiteSpace=wrap;html=1;labelBackgroundColor=none;strokeColor=#028090;fontColor=#E4FDE1;" parent="mXVCurrykyvoNQEbf8Xi-5" vertex="1">
          <mxGeometry x="30" width="95" height="30" as="geometry">
            <mxRectangle width="95" height="30" as="alternateBounds" />
          </mxGeometry>
        </mxCell>
        <mxCell id="mXVCurrykyvoNQEbf8Xi-8" value="" style="shape=tableRow;horizontal=0;startSize=0;swimlaneHead=0;swimlaneBody=0;fillColor=none;collapsible=0;dropTarget=0;points=[[0,0.5],[1,0.5]];portConstraint=eastwest;top=0;left=0;right=0;bottom=0;labelBackgroundColor=none;strokeColor=#028090;fontColor=#E4FDE1;" parent="mXVCurrykyvoNQEbf8Xi-1" vertex="1">
          <mxGeometry y="60" width="125" height="30" as="geometry" />
        </mxCell>
        <mxCell id="mXVCurrykyvoNQEbf8Xi-9" value="" style="shape=partialRectangle;connectable=0;fillColor=none;top=0;left=0;bottom=0;right=0;editable=1;overflow=hidden;whiteSpace=wrap;html=1;labelBackgroundColor=none;strokeColor=#028090;fontColor=#E4FDE1;" parent="mXVCurrykyvoNQEbf8Xi-8" vertex="1">
          <mxGeometry width="30" height="30" as="geometry">
            <mxRectangle width="30" height="30" as="alternateBounds" />
          </mxGeometry>
        </mxCell>
        <mxCell id="mXVCurrykyvoNQEbf8Xi-10" value="language_name" style="shape=partialRectangle;connectable=0;fillColor=none;top=0;left=0;bottom=0;right=0;align=left;spacingLeft=6;overflow=hidden;whiteSpace=wrap;html=1;labelBackgroundColor=none;strokeColor=#028090;fontColor=#E4FDE1;" parent="mXVCurrykyvoNQEbf8Xi-8" vertex="1">
          <mxGeometry x="30" width="95" height="30" as="geometry">
            <mxRectangle width="95" height="30" as="alternateBounds" />
          </mxGeometry>
        </mxCell>
        <mxCell id="mXVCurrykyvoNQEbf8Xi-11" value="" style="shape=tableRow;horizontal=0;startSize=0;swimlaneHead=0;swimlaneBody=0;fillColor=none;collapsible=0;dropTarget=0;points=[[0,0.5],[1,0.5]];portConstraint=eastwest;top=0;left=0;right=0;bottom=0;labelBackgroundColor=none;strokeColor=#028090;fontColor=#E4FDE1;" parent="mXVCurrykyvoNQEbf8Xi-1" vertex="1">
          <mxGeometry y="90" width="125" height="30" as="geometry" />
        </mxCell>
        <mxCell id="mXVCurrykyvoNQEbf8Xi-12" value="" style="shape=partialRectangle;connectable=0;fillColor=none;top=0;left=0;bottom=0;right=0;editable=1;overflow=hidden;whiteSpace=wrap;html=1;labelBackgroundColor=none;strokeColor=#028090;fontColor=#E4FDE1;" parent="mXVCurrykyvoNQEbf8Xi-11" vertex="1">
          <mxGeometry width="30" height="30" as="geometry">
            <mxRectangle width="30" height="30" as="alternateBounds" />
          </mxGeometry>
        </mxCell>
        <mxCell id="mXVCurrykyvoNQEbf8Xi-13" value="language_code" style="shape=partialRectangle;connectable=0;fillColor=none;top=0;left=0;bottom=0;right=0;align=left;spacingLeft=6;overflow=hidden;whiteSpace=wrap;html=1;labelBackgroundColor=none;strokeColor=#028090;fontColor=#E4FDE1;" parent="mXVCurrykyvoNQEbf8Xi-11" vertex="1">
          <mxGeometry x="30" width="95" height="30" as="geometry">
            <mxRectangle width="95" height="30" as="alternateBounds" />
          </mxGeometry>
        </mxCell>
        <mxCell id="mXVCurrykyvoNQEbf8Xi-16" value="publisher" style="shape=table;startSize=30;container=1;collapsible=1;childLayout=tableLayout;fixedRows=1;rowLines=0;fontStyle=1;align=center;resizeLast=1;html=1;labelBackgroundColor=none;fillColor=#F45B69;strokeColor=#028090;fontColor=#E4FDE1;" parent="1" vertex="1">
          <mxGeometry x="190" y="-42" width="135" height="136" as="geometry" />
        </mxCell>
        <mxCell id="mXVCurrykyvoNQEbf8Xi-17" value="" style="shape=tableRow;horizontal=0;startSize=0;swimlaneHead=0;swimlaneBody=0;fillColor=none;collapsible=0;dropTarget=0;points=[[0,0.5],[1,0.5]];portConstraint=eastwest;top=0;left=0;right=0;bottom=1;labelBackgroundColor=none;strokeColor=#028090;fontColor=#E4FDE1;" parent="mXVCurrykyvoNQEbf8Xi-16" vertex="1">
          <mxGeometry y="30" width="135" height="24" as="geometry" />
        </mxCell>
        <mxCell id="mXVCurrykyvoNQEbf8Xi-18" value="PK" style="shape=partialRectangle;connectable=0;fillColor=none;top=0;left=0;bottom=0;right=0;fontStyle=1;overflow=hidden;whiteSpace=wrap;html=1;labelBackgroundColor=none;strokeColor=#028090;fontColor=#E4FDE1;" parent="mXVCurrykyvoNQEbf8Xi-17" vertex="1">
          <mxGeometry width="30" height="24" as="geometry">
            <mxRectangle width="30" height="24" as="alternateBounds" />
          </mxGeometry>
        </mxCell>
        <mxCell id="mXVCurrykyvoNQEbf8Xi-19" value="publisher_id" style="shape=partialRectangle;connectable=0;fillColor=none;top=0;left=0;bottom=0;right=0;align=left;spacingLeft=6;fontStyle=5;overflow=hidden;whiteSpace=wrap;html=1;labelBackgroundColor=none;strokeColor=#028090;fontColor=#E4FDE1;" parent="mXVCurrykyvoNQEbf8Xi-17" vertex="1">
          <mxGeometry x="30" width="105" height="24" as="geometry">
            <mxRectangle width="105" height="24" as="alternateBounds" />
          </mxGeometry>
        </mxCell>
        <mxCell id="mXVCurrykyvoNQEbf8Xi-20" value="" style="shape=tableRow;horizontal=0;startSize=0;swimlaneHead=0;swimlaneBody=0;fillColor=none;collapsible=0;dropTarget=0;points=[[0,0.5],[1,0.5]];portConstraint=eastwest;top=0;left=0;right=0;bottom=0;labelBackgroundColor=none;strokeColor=#028090;fontColor=#E4FDE1;" parent="mXVCurrykyvoNQEbf8Xi-16" vertex="1">
          <mxGeometry y="54" width="135" height="40" as="geometry" />
        </mxCell>
        <mxCell id="mXVCurrykyvoNQEbf8Xi-21" value="pk" style="shape=partialRectangle;connectable=0;fillColor=none;top=0;left=0;bottom=0;right=0;editable=1;overflow=hidden;whiteSpace=wrap;html=1;labelBackgroundColor=none;strokeColor=#028090;fontColor=#E4FDE1;" parent="mXVCurrykyvoNQEbf8Xi-20" vertex="1">
          <mxGeometry width="30" height="40" as="geometry">
            <mxRectangle width="30" height="40" as="alternateBounds" />
          </mxGeometry>
        </mxCell>
        <mxCell id="mXVCurrykyvoNQEbf8Xi-22" value="publisher_name&lt;div&gt;publidher_email&lt;/div&gt;" style="shape=partialRectangle;connectable=0;fillColor=none;top=0;left=0;bottom=0;right=0;align=left;spacingLeft=6;overflow=hidden;whiteSpace=wrap;html=1;labelBackgroundColor=none;strokeColor=#028090;fontColor=#E4FDE1;" parent="mXVCurrykyvoNQEbf8Xi-20" vertex="1">
          <mxGeometry x="30" width="105" height="40" as="geometry">
            <mxRectangle width="105" height="40" as="alternateBounds" />
          </mxGeometry>
        </mxCell>
        <mxCell id="mXVCurrykyvoNQEbf8Xi-23" value="" style="shape=tableRow;horizontal=0;startSize=0;swimlaneHead=0;swimlaneBody=0;fillColor=none;collapsible=0;dropTarget=0;points=[[0,0.5],[1,0.5]];portConstraint=eastwest;top=0;left=0;right=0;bottom=0;labelBackgroundColor=none;strokeColor=#028090;fontColor=#E4FDE1;" parent="mXVCurrykyvoNQEbf8Xi-16" vertex="1">
          <mxGeometry y="94" width="135" height="20" as="geometry" />
        </mxCell>
        <mxCell id="mXVCurrykyvoNQEbf8Xi-24" value="" style="shape=partialRectangle;connectable=0;fillColor=none;top=0;left=0;bottom=0;right=0;editable=1;overflow=hidden;whiteSpace=wrap;html=1;labelBackgroundColor=none;strokeColor=#028090;fontColor=#E4FDE1;" parent="mXVCurrykyvoNQEbf8Xi-23" vertex="1">
          <mxGeometry width="30" height="20" as="geometry">
            <mxRectangle width="30" height="20" as="alternateBounds" />
          </mxGeometry>
        </mxCell>
        <mxCell id="mXVCurrykyvoNQEbf8Xi-25" value="publisher_phone" style="shape=partialRectangle;connectable=0;fillColor=none;top=0;left=0;bottom=0;right=0;align=left;spacingLeft=6;overflow=hidden;whiteSpace=wrap;html=1;labelBackgroundColor=none;strokeColor=#028090;fontColor=#E4FDE1;" parent="mXVCurrykyvoNQEbf8Xi-23" vertex="1">
          <mxGeometry x="30" width="105" height="20" as="geometry">
            <mxRectangle width="105" height="20" as="alternateBounds" />
          </mxGeometry>
        </mxCell>
        <mxCell id="mXVCurrykyvoNQEbf8Xi-26" value="" style="shape=tableRow;horizontal=0;startSize=0;swimlaneHead=0;swimlaneBody=0;fillColor=none;collapsible=0;dropTarget=0;points=[[0,0.5],[1,0.5]];portConstraint=eastwest;top=0;left=0;right=0;bottom=0;labelBackgroundColor=none;strokeColor=#028090;fontColor=#E4FDE1;" parent="mXVCurrykyvoNQEbf8Xi-16" vertex="1">
          <mxGeometry y="114" width="135" height="22" as="geometry" />
        </mxCell>
        <mxCell id="mXVCurrykyvoNQEbf8Xi-27" value="" style="shape=partialRectangle;connectable=0;fillColor=none;top=0;left=0;bottom=0;right=0;editable=1;overflow=hidden;whiteSpace=wrap;html=1;labelBackgroundColor=none;strokeColor=#028090;fontColor=#E4FDE1;" parent="mXVCurrykyvoNQEbf8Xi-26" vertex="1">
          <mxGeometry width="30" height="22" as="geometry">
            <mxRectangle width="30" height="22" as="alternateBounds" />
          </mxGeometry>
        </mxCell>
        <mxCell id="mXVCurrykyvoNQEbf8Xi-28" value="publisher_website" style="shape=partialRectangle;connectable=0;fillColor=none;top=0;left=0;bottom=0;right=0;align=left;spacingLeft=6;overflow=hidden;whiteSpace=wrap;html=1;labelBackgroundColor=none;strokeColor=#028090;fontColor=#E4FDE1;" parent="mXVCurrykyvoNQEbf8Xi-26" vertex="1">
          <mxGeometry x="30" width="105" height="22" as="geometry">
            <mxRectangle width="105" height="22" as="alternateBounds" />
          </mxGeometry>
        </mxCell>
        <mxCell id="mXVCurrykyvoNQEbf8Xi-29" value="Author" style="shape=table;startSize=30;container=1;collapsible=1;childLayout=tableLayout;fixedRows=1;rowLines=0;fontStyle=1;align=center;resizeLast=1;html=1;labelBackgroundColor=none;fillColor=#F45B69;strokeColor=#028090;fontColor=#E4FDE1;" parent="1" vertex="1">
          <mxGeometry x="375" y="-57" width="140.75" height="158" as="geometry" />
        </mxCell>
        <mxCell id="mXVCurrykyvoNQEbf8Xi-30" value="" style="shape=tableRow;horizontal=0;startSize=0;swimlaneHead=0;swimlaneBody=0;fillColor=none;collapsible=0;dropTarget=0;points=[[0,0.5],[1,0.5]];portConstraint=eastwest;top=0;left=0;right=0;bottom=1;labelBackgroundColor=none;strokeColor=#028090;fontColor=#E4FDE1;" parent="mXVCurrykyvoNQEbf8Xi-29" vertex="1">
          <mxGeometry y="30" width="140.75" height="28" as="geometry" />
        </mxCell>
        <mxCell id="mXVCurrykyvoNQEbf8Xi-31" value="PK" style="shape=partialRectangle;connectable=0;fillColor=none;top=0;left=0;bottom=0;right=0;fontStyle=1;overflow=hidden;whiteSpace=wrap;html=1;labelBackgroundColor=none;strokeColor=#028090;fontColor=#E4FDE1;" parent="mXVCurrykyvoNQEbf8Xi-30" vertex="1">
          <mxGeometry width="30" height="28" as="geometry">
            <mxRectangle width="30" height="28" as="alternateBounds" />
          </mxGeometry>
        </mxCell>
        <mxCell id="mXVCurrykyvoNQEbf8Xi-32" value="author_id" style="shape=partialRectangle;connectable=0;fillColor=none;top=0;left=0;bottom=0;right=0;align=left;spacingLeft=6;fontStyle=5;overflow=hidden;whiteSpace=wrap;html=1;labelBackgroundColor=none;strokeColor=#028090;fontColor=#E4FDE1;" parent="mXVCurrykyvoNQEbf8Xi-30" vertex="1">
          <mxGeometry x="30" width="110.75" height="28" as="geometry">
            <mxRectangle width="110.75" height="28" as="alternateBounds" />
          </mxGeometry>
        </mxCell>
        <mxCell id="mXVCurrykyvoNQEbf8Xi-33" value="" style="shape=tableRow;horizontal=0;startSize=0;swimlaneHead=0;swimlaneBody=0;fillColor=none;collapsible=0;dropTarget=0;points=[[0,0.5],[1,0.5]];portConstraint=eastwest;top=0;left=0;right=0;bottom=0;labelBackgroundColor=none;strokeColor=#028090;fontColor=#E4FDE1;" parent="mXVCurrykyvoNQEbf8Xi-29" vertex="1">
          <mxGeometry y="58" width="140.75" height="35" as="geometry" />
        </mxCell>
        <mxCell id="mXVCurrykyvoNQEbf8Xi-34" value="" style="shape=partialRectangle;connectable=0;fillColor=none;top=0;left=0;bottom=0;right=0;editable=1;overflow=hidden;whiteSpace=wrap;html=1;labelBackgroundColor=none;strokeColor=#028090;fontColor=#E4FDE1;" parent="mXVCurrykyvoNQEbf8Xi-33" vertex="1">
          <mxGeometry width="30" height="35" as="geometry">
            <mxRectangle width="30" height="35" as="alternateBounds" />
          </mxGeometry>
        </mxCell>
        <mxCell id="mXVCurrykyvoNQEbf8Xi-35" value="author first_name&lt;div&gt;author last_name&lt;/div&gt;" style="shape=partialRectangle;connectable=0;fillColor=none;top=0;left=0;bottom=0;right=0;align=left;spacingLeft=6;overflow=hidden;whiteSpace=wrap;html=1;labelBackgroundColor=none;strokeColor=#028090;fontColor=#E4FDE1;" parent="mXVCurrykyvoNQEbf8Xi-33" vertex="1">
          <mxGeometry x="30" width="110.75" height="35" as="geometry">
            <mxRectangle width="110.75" height="35" as="alternateBounds" />
          </mxGeometry>
        </mxCell>
        <mxCell id="mXVCurrykyvoNQEbf8Xi-36" value="" style="shape=tableRow;horizontal=0;startSize=0;swimlaneHead=0;swimlaneBody=0;fillColor=none;collapsible=0;dropTarget=0;points=[[0,0.5],[1,0.5]];portConstraint=eastwest;top=0;left=0;right=0;bottom=0;labelBackgroundColor=none;strokeColor=#028090;fontColor=#E4FDE1;" parent="mXVCurrykyvoNQEbf8Xi-29" vertex="1">
          <mxGeometry y="93" width="140.75" height="35" as="geometry" />
        </mxCell>
        <mxCell id="mXVCurrykyvoNQEbf8Xi-37" value="" style="shape=partialRectangle;connectable=0;fillColor=none;top=0;left=0;bottom=0;right=0;editable=1;overflow=hidden;whiteSpace=wrap;html=1;labelBackgroundColor=none;strokeColor=#028090;fontColor=#E4FDE1;" parent="mXVCurrykyvoNQEbf8Xi-36" vertex="1">
          <mxGeometry width="30" height="35" as="geometry">
            <mxRectangle width="30" height="35" as="alternateBounds" />
          </mxGeometry>
        </mxCell>
        <mxCell id="mXVCurrykyvoNQEbf8Xi-38" value="author bio&lt;div&gt;author email&lt;/div&gt;" style="shape=partialRectangle;connectable=0;fillColor=none;top=0;left=0;bottom=0;right=0;align=left;spacingLeft=6;overflow=hidden;whiteSpace=wrap;html=1;labelBackgroundColor=none;strokeColor=#028090;fontColor=#E4FDE1;" parent="mXVCurrykyvoNQEbf8Xi-36" vertex="1">
          <mxGeometry x="30" width="110.75" height="35" as="geometry">
            <mxRectangle width="110.75" height="35" as="alternateBounds" />
          </mxGeometry>
        </mxCell>
        <mxCell id="mXVCurrykyvoNQEbf8Xi-39" value="" style="shape=tableRow;horizontal=0;startSize=0;swimlaneHead=0;swimlaneBody=0;fillColor=none;collapsible=0;dropTarget=0;points=[[0,0.5],[1,0.5]];portConstraint=eastwest;top=0;left=0;right=0;bottom=0;labelBackgroundColor=none;strokeColor=#028090;fontColor=#E4FDE1;" parent="mXVCurrykyvoNQEbf8Xi-29" vertex="1">
          <mxGeometry y="128" width="140.75" height="30" as="geometry" />
        </mxCell>
        <mxCell id="mXVCurrykyvoNQEbf8Xi-40" value="" style="shape=partialRectangle;connectable=0;fillColor=none;top=0;left=0;bottom=0;right=0;editable=1;overflow=hidden;whiteSpace=wrap;html=1;labelBackgroundColor=none;strokeColor=#028090;fontColor=#E4FDE1;" parent="mXVCurrykyvoNQEbf8Xi-39" vertex="1">
          <mxGeometry width="30" height="30" as="geometry">
            <mxRectangle width="30" height="30" as="alternateBounds" />
          </mxGeometry>
        </mxCell>
        <mxCell id="mXVCurrykyvoNQEbf8Xi-41" value="date of birth" style="shape=partialRectangle;connectable=0;fillColor=none;top=0;left=0;bottom=0;right=0;align=left;spacingLeft=6;overflow=hidden;whiteSpace=wrap;html=1;labelBackgroundColor=none;strokeColor=#028090;fontColor=#E4FDE1;" parent="mXVCurrykyvoNQEbf8Xi-39" vertex="1">
          <mxGeometry x="30" width="110.75" height="30" as="geometry">
            <mxRectangle width="110.75" height="30" as="alternateBounds" />
          </mxGeometry>
        </mxCell>
        <mxCell id="mXVCurrykyvoNQEbf8Xi-42" value="book author" style="shape=table;startSize=30;container=1;collapsible=1;childLayout=tableLayout;fixedRows=1;rowLines=0;fontStyle=1;align=center;resizeLast=1;html=1;labelBackgroundColor=none;fillColor=#F45B69;strokeColor=#028090;fontColor=#E4FDE1;" parent="1" vertex="1">
          <mxGeometry x="588" y="-78" width="130" height="90" as="geometry" />
        </mxCell>
        <mxCell id="mXVCurrykyvoNQEbf8Xi-43" value="" style="shape=tableRow;horizontal=0;startSize=0;swimlaneHead=0;swimlaneBody=0;fillColor=none;collapsible=0;dropTarget=0;points=[[0,0.5],[1,0.5]];portConstraint=eastwest;top=0;left=0;right=0;bottom=1;labelBackgroundColor=none;strokeColor=#028090;fontColor=#E4FDE1;" parent="mXVCurrykyvoNQEbf8Xi-42" vertex="1">
          <mxGeometry y="30" width="130" height="30" as="geometry" />
        </mxCell>
        <mxCell id="mXVCurrykyvoNQEbf8Xi-44" value="PK" style="shape=partialRectangle;connectable=0;fillColor=none;top=0;left=0;bottom=0;right=0;fontStyle=1;overflow=hidden;whiteSpace=wrap;html=1;labelBackgroundColor=none;strokeColor=#028090;fontColor=#E4FDE1;" parent="mXVCurrykyvoNQEbf8Xi-43" vertex="1">
          <mxGeometry width="30" height="30" as="geometry">
            <mxRectangle width="30" height="30" as="alternateBounds" />
          </mxGeometry>
        </mxCell>
        <mxCell id="mXVCurrykyvoNQEbf8Xi-45" value="book id" style="shape=partialRectangle;connectable=0;fillColor=none;top=0;left=0;bottom=0;right=0;align=left;spacingLeft=6;fontStyle=5;overflow=hidden;whiteSpace=wrap;html=1;labelBackgroundColor=none;strokeColor=#028090;fontColor=#E4FDE1;" parent="mXVCurrykyvoNQEbf8Xi-43" vertex="1">
          <mxGeometry x="30" width="100" height="30" as="geometry">
            <mxRectangle width="100" height="30" as="alternateBounds" />
          </mxGeometry>
        </mxCell>
        <mxCell id="mXVCurrykyvoNQEbf8Xi-46" value="" style="shape=tableRow;horizontal=0;startSize=0;swimlaneHead=0;swimlaneBody=0;fillColor=none;collapsible=0;dropTarget=0;points=[[0,0.5],[1,0.5]];portConstraint=eastwest;top=0;left=0;right=0;bottom=0;labelBackgroundColor=none;strokeColor=#028090;fontColor=#E4FDE1;" parent="mXVCurrykyvoNQEbf8Xi-42" vertex="1">
          <mxGeometry y="60" width="130" height="30" as="geometry" />
        </mxCell>
        <mxCell id="mXVCurrykyvoNQEbf8Xi-47" value="FK" style="shape=partialRectangle;connectable=0;fillColor=none;top=0;left=0;bottom=0;right=0;editable=1;overflow=hidden;whiteSpace=wrap;html=1;labelBackgroundColor=none;strokeColor=#028090;fontColor=#E4FDE1;" parent="mXVCurrykyvoNQEbf8Xi-46" vertex="1">
          <mxGeometry width="30" height="30" as="geometry">
            <mxRectangle width="30" height="30" as="alternateBounds" />
          </mxGeometry>
        </mxCell>
        <mxCell id="mXVCurrykyvoNQEbf8Xi-48" value="author id" style="shape=partialRectangle;connectable=0;fillColor=none;top=0;left=0;bottom=0;right=0;align=left;spacingLeft=6;overflow=hidden;whiteSpace=wrap;html=1;labelBackgroundColor=none;strokeColor=#028090;fontColor=#E4FDE1;" parent="mXVCurrykyvoNQEbf8Xi-46" vertex="1">
          <mxGeometry x="30" width="100" height="30" as="geometry">
            <mxRectangle width="100" height="30" as="alternateBounds" />
          </mxGeometry>
        </mxCell>
        <mxCell id="mXVCurrykyvoNQEbf8Xi-55" value="address status" style="shape=table;startSize=30;container=1;collapsible=1;childLayout=tableLayout;fixedRows=1;rowLines=0;fontStyle=1;align=center;resizeLast=1;html=1;labelBackgroundColor=none;fillColor=#F45B69;strokeColor=#028090;fontColor=#E4FDE1;" parent="1" vertex="1">
          <mxGeometry x="801" y="-70" width="129" height="123.3103448275862" as="geometry" />
        </mxCell>
        <mxCell id="mXVCurrykyvoNQEbf8Xi-56" value="" style="shape=tableRow;horizontal=0;startSize=0;swimlaneHead=0;swimlaneBody=0;fillColor=none;collapsible=0;dropTarget=0;points=[[0,0.5],[1,0.5]];portConstraint=eastwest;top=0;left=0;right=0;bottom=1;labelBackgroundColor=none;strokeColor=#028090;fontColor=#E4FDE1;" parent="mXVCurrykyvoNQEbf8Xi-55" vertex="1">
          <mxGeometry y="30" width="129" height="33" as="geometry" />
        </mxCell>
        <mxCell id="mXVCurrykyvoNQEbf8Xi-57" value="PK" style="shape=partialRectangle;connectable=0;fillColor=none;top=0;left=0;bottom=0;right=0;fontStyle=1;overflow=hidden;whiteSpace=wrap;html=1;labelBackgroundColor=none;strokeColor=#028090;fontColor=#E4FDE1;" parent="mXVCurrykyvoNQEbf8Xi-56" vertex="1">
          <mxGeometry width="30" height="33" as="geometry">
            <mxRectangle width="30" height="33" as="alternateBounds" />
          </mxGeometry>
        </mxCell>
        <mxCell id="mXVCurrykyvoNQEbf8Xi-58" value="status_id" style="shape=partialRectangle;connectable=0;fillColor=none;top=0;left=0;bottom=0;right=0;align=left;spacingLeft=6;fontStyle=5;overflow=hidden;whiteSpace=wrap;html=1;labelBackgroundColor=none;strokeColor=#028090;fontColor=#E4FDE1;" parent="mXVCurrykyvoNQEbf8Xi-56" vertex="1">
          <mxGeometry x="30" width="99" height="33" as="geometry">
            <mxRectangle width="99" height="33" as="alternateBounds" />
          </mxGeometry>
        </mxCell>
        <mxCell id="mXVCurrykyvoNQEbf8Xi-59" value="" style="shape=tableRow;horizontal=0;startSize=0;swimlaneHead=0;swimlaneBody=0;fillColor=none;collapsible=0;dropTarget=0;points=[[0,0.5],[1,0.5]];portConstraint=eastwest;top=0;left=0;right=0;bottom=0;labelBackgroundColor=none;strokeColor=#028090;fontColor=#E4FDE1;" parent="mXVCurrykyvoNQEbf8Xi-55" vertex="1">
          <mxGeometry y="63" width="129" height="30" as="geometry" />
        </mxCell>
        <mxCell id="mXVCurrykyvoNQEbf8Xi-60" value="" style="shape=partialRectangle;connectable=0;fillColor=none;top=0;left=0;bottom=0;right=0;editable=1;overflow=hidden;whiteSpace=wrap;html=1;labelBackgroundColor=none;strokeColor=#028090;fontColor=#E4FDE1;" parent="mXVCurrykyvoNQEbf8Xi-59" vertex="1">
          <mxGeometry width="30" height="30" as="geometry">
            <mxRectangle width="30" height="30" as="alternateBounds" />
          </mxGeometry>
        </mxCell>
        <mxCell id="mXVCurrykyvoNQEbf8Xi-61" value="status name" style="shape=partialRectangle;connectable=0;fillColor=none;top=0;left=0;bottom=0;right=0;align=left;spacingLeft=6;overflow=hidden;whiteSpace=wrap;html=1;labelBackgroundColor=none;strokeColor=#028090;fontColor=#E4FDE1;" parent="mXVCurrykyvoNQEbf8Xi-59" vertex="1">
          <mxGeometry x="30" width="99" height="30" as="geometry">
            <mxRectangle width="99" height="30" as="alternateBounds" />
          </mxGeometry>
        </mxCell>
        <mxCell id="mXVCurrykyvoNQEbf8Xi-62" value="" style="shape=tableRow;horizontal=0;startSize=0;swimlaneHead=0;swimlaneBody=0;fillColor=none;collapsible=0;dropTarget=0;points=[[0,0.5],[1,0.5]];portConstraint=eastwest;top=0;left=0;right=0;bottom=0;labelBackgroundColor=none;strokeColor=#028090;fontColor=#E4FDE1;" parent="mXVCurrykyvoNQEbf8Xi-55" vertex="1">
          <mxGeometry y="93" width="129" height="30" as="geometry" />
        </mxCell>
        <mxCell id="mXVCurrykyvoNQEbf8Xi-63" value="" style="shape=partialRectangle;connectable=0;fillColor=none;top=0;left=0;bottom=0;right=0;editable=1;overflow=hidden;whiteSpace=wrap;html=1;labelBackgroundColor=none;strokeColor=#028090;fontColor=#E4FDE1;" parent="mXVCurrykyvoNQEbf8Xi-62" vertex="1">
          <mxGeometry width="30" height="30" as="geometry">
            <mxRectangle width="30" height="30" as="alternateBounds" />
          </mxGeometry>
        </mxCell>
        <mxCell id="mXVCurrykyvoNQEbf8Xi-64" value="description" style="shape=partialRectangle;connectable=0;fillColor=none;top=0;left=0;bottom=0;right=0;align=left;spacingLeft=6;overflow=hidden;whiteSpace=wrap;html=1;labelBackgroundColor=none;strokeColor=#028090;fontColor=#E4FDE1;" parent="mXVCurrykyvoNQEbf8Xi-62" vertex="1">
          <mxGeometry x="30" width="99" height="30" as="geometry">
            <mxRectangle width="99" height="30" as="alternateBounds" />
          </mxGeometry>
        </mxCell>
        <mxCell id="WCFa2Cr-OOJwAC3f-8SP-14" value="book" style="shape=table;startSize=27;container=1;collapsible=1;childLayout=tableLayout;fixedRows=1;rowLines=0;fontStyle=1;align=center;resizeLast=1;html=1;labelBackgroundColor=none;fillColor=#F45B69;strokeColor=#028090;fontColor=#E4FDE1;" vertex="1" parent="1">
          <mxGeometry x="233" y="221" width="180" height="157" as="geometry" />
        </mxCell>
        <mxCell id="WCFa2Cr-OOJwAC3f-8SP-15" value="" style="shape=tableRow;horizontal=0;startSize=0;swimlaneHead=0;swimlaneBody=0;fillColor=none;collapsible=0;dropTarget=0;points=[[0,0.5],[1,0.5]];portConstraint=eastwest;top=0;left=0;right=0;bottom=1;labelBackgroundColor=none;strokeColor=#028090;fontColor=#E4FDE1;" vertex="1" parent="WCFa2Cr-OOJwAC3f-8SP-14">
          <mxGeometry y="27" width="180" height="20" as="geometry" />
        </mxCell>
        <mxCell id="WCFa2Cr-OOJwAC3f-8SP-16" value="PK" style="shape=partialRectangle;connectable=0;fillColor=none;top=0;left=0;bottom=0;right=0;fontStyle=1;overflow=hidden;whiteSpace=wrap;html=1;labelBackgroundColor=none;strokeColor=#028090;fontColor=#E4FDE1;" vertex="1" parent="WCFa2Cr-OOJwAC3f-8SP-15">
          <mxGeometry width="30" height="20" as="geometry">
            <mxRectangle width="30" height="20" as="alternateBounds" />
          </mxGeometry>
        </mxCell>
        <mxCell id="WCFa2Cr-OOJwAC3f-8SP-17" value="title" style="shape=partialRectangle;connectable=0;fillColor=none;top=0;left=0;bottom=0;right=0;align=left;spacingLeft=6;fontStyle=5;overflow=hidden;whiteSpace=wrap;html=1;labelBackgroundColor=none;strokeColor=#028090;fontColor=#E4FDE1;" vertex="1" parent="WCFa2Cr-OOJwAC3f-8SP-15">
          <mxGeometry x="30" width="150" height="20" as="geometry">
            <mxRectangle width="150" height="20" as="alternateBounds" />
          </mxGeometry>
        </mxCell>
        <mxCell id="WCFa2Cr-OOJwAC3f-8SP-18" value="" style="shape=tableRow;horizontal=0;startSize=0;swimlaneHead=0;swimlaneBody=0;fillColor=none;collapsible=0;dropTarget=0;points=[[0,0.5],[1,0.5]];portConstraint=eastwest;top=0;left=0;right=0;bottom=0;labelBackgroundColor=none;strokeColor=#028090;fontColor=#E4FDE1;" vertex="1" parent="WCFa2Cr-OOJwAC3f-8SP-14">
          <mxGeometry y="47" width="180" height="30" as="geometry" />
        </mxCell>
        <mxCell id="WCFa2Cr-OOJwAC3f-8SP-19" value="" style="shape=partialRectangle;connectable=0;fillColor=none;top=0;left=0;bottom=0;right=0;editable=1;overflow=hidden;whiteSpace=wrap;html=1;labelBackgroundColor=none;strokeColor=#028090;fontColor=#E4FDE1;" vertex="1" parent="WCFa2Cr-OOJwAC3f-8SP-18">
          <mxGeometry width="30" height="30" as="geometry">
            <mxRectangle width="30" height="30" as="alternateBounds" />
          </mxGeometry>
        </mxCell>
        <mxCell id="WCFa2Cr-OOJwAC3f-8SP-20" value="isbn&lt;div&gt;publication date&lt;/div&gt;" style="shape=partialRectangle;connectable=0;fillColor=none;top=0;left=0;bottom=0;right=0;align=left;spacingLeft=6;overflow=hidden;whiteSpace=wrap;html=1;labelBackgroundColor=none;strokeColor=#028090;fontColor=#E4FDE1;" vertex="1" parent="WCFa2Cr-OOJwAC3f-8SP-18">
          <mxGeometry x="30" width="150" height="30" as="geometry">
            <mxRectangle width="150" height="30" as="alternateBounds" />
          </mxGeometry>
        </mxCell>
        <mxCell id="WCFa2Cr-OOJwAC3f-8SP-21" value="" style="shape=tableRow;horizontal=0;startSize=0;swimlaneHead=0;swimlaneBody=0;fillColor=none;collapsible=0;dropTarget=0;points=[[0,0.5],[1,0.5]];portConstraint=eastwest;top=0;left=0;right=0;bottom=0;labelBackgroundColor=none;strokeColor=#028090;fontColor=#E4FDE1;" vertex="1" parent="WCFa2Cr-OOJwAC3f-8SP-14">
          <mxGeometry y="77" width="180" height="30" as="geometry" />
        </mxCell>
        <mxCell id="WCFa2Cr-OOJwAC3f-8SP-22" value="" style="shape=partialRectangle;connectable=0;fillColor=none;top=0;left=0;bottom=0;right=0;editable=1;overflow=hidden;whiteSpace=wrap;html=1;labelBackgroundColor=none;strokeColor=#028090;fontColor=#E4FDE1;" vertex="1" parent="WCFa2Cr-OOJwAC3f-8SP-21">
          <mxGeometry width="30" height="30" as="geometry">
            <mxRectangle width="30" height="30" as="alternateBounds" />
          </mxGeometry>
        </mxCell>
        <mxCell id="WCFa2Cr-OOJwAC3f-8SP-23" value="price&lt;div&gt;description&lt;/div&gt;" style="shape=partialRectangle;connectable=0;fillColor=none;top=0;left=0;bottom=0;right=0;align=left;spacingLeft=6;overflow=hidden;whiteSpace=wrap;html=1;labelBackgroundColor=none;strokeColor=#028090;fontColor=#E4FDE1;" vertex="1" parent="WCFa2Cr-OOJwAC3f-8SP-21">
          <mxGeometry x="30" width="150" height="30" as="geometry">
            <mxRectangle width="150" height="30" as="alternateBounds" />
          </mxGeometry>
        </mxCell>
        <mxCell id="WCFa2Cr-OOJwAC3f-8SP-24" value="" style="shape=tableRow;horizontal=0;startSize=0;swimlaneHead=0;swimlaneBody=0;fillColor=none;collapsible=0;dropTarget=0;points=[[0,0.5],[1,0.5]];portConstraint=eastwest;top=0;left=0;right=0;bottom=0;labelBackgroundColor=none;strokeColor=#028090;fontColor=#E4FDE1;" vertex="1" parent="WCFa2Cr-OOJwAC3f-8SP-14">
          <mxGeometry y="107" width="180" height="50" as="geometry" />
        </mxCell>
        <mxCell id="WCFa2Cr-OOJwAC3f-8SP-25" value="" style="shape=partialRectangle;connectable=0;fillColor=none;top=0;left=0;bottom=0;right=0;editable=1;overflow=hidden;whiteSpace=wrap;html=1;labelBackgroundColor=none;strokeColor=#028090;fontColor=#E4FDE1;" vertex="1" parent="WCFa2Cr-OOJwAC3f-8SP-24">
          <mxGeometry width="30" height="50" as="geometry">
            <mxRectangle width="30" height="50" as="alternateBounds" />
          </mxGeometry>
        </mxCell>
        <mxCell id="WCFa2Cr-OOJwAC3f-8SP-26" value="publisher id&lt;div&gt;language id&amp;nbsp;&lt;/div&gt;&lt;div&gt;page count&lt;/div&gt;" style="shape=partialRectangle;connectable=0;fillColor=none;top=0;left=0;bottom=0;right=0;align=left;spacingLeft=6;overflow=hidden;whiteSpace=wrap;html=1;labelBackgroundColor=none;strokeColor=#028090;fontColor=#E4FDE1;" vertex="1" parent="WCFa2Cr-OOJwAC3f-8SP-24">
          <mxGeometry x="30" width="150" height="50" as="geometry">
            <mxRectangle width="150" height="50" as="alternateBounds" />
          </mxGeometry>
        </mxCell>
        <mxCell id="WCFa2Cr-OOJwAC3f-8SP-40" value="country" style="shape=table;startSize=30;container=1;collapsible=1;childLayout=tableLayout;fixedRows=1;rowLines=0;fontStyle=1;align=center;resizeLast=1;html=1;labelBackgroundColor=none;fillColor=#F45B69;strokeColor=#028090;fontColor=#E4FDE1;" vertex="1" parent="1">
          <mxGeometry x="446" y="229" width="115" height="115" as="geometry" />
        </mxCell>
        <mxCell id="WCFa2Cr-OOJwAC3f-8SP-41" value="" style="shape=tableRow;horizontal=0;startSize=0;swimlaneHead=0;swimlaneBody=0;fillColor=none;collapsible=0;dropTarget=0;points=[[0,0.5],[1,0.5]];portConstraint=eastwest;top=0;left=0;right=0;bottom=1;labelBackgroundColor=none;strokeColor=#028090;fontColor=#E4FDE1;" vertex="1" parent="WCFa2Cr-OOJwAC3f-8SP-40">
          <mxGeometry y="30" width="115" height="30" as="geometry" />
        </mxCell>
        <mxCell id="WCFa2Cr-OOJwAC3f-8SP-42" value="PK" style="shape=partialRectangle;connectable=0;fillColor=none;top=0;left=0;bottom=0;right=0;fontStyle=1;overflow=hidden;whiteSpace=wrap;html=1;labelBackgroundColor=none;strokeColor=#028090;fontColor=#E4FDE1;" vertex="1" parent="WCFa2Cr-OOJwAC3f-8SP-41">
          <mxGeometry width="28.75" height="30" as="geometry">
            <mxRectangle width="28.75" height="30" as="alternateBounds" />
          </mxGeometry>
        </mxCell>
        <mxCell id="WCFa2Cr-OOJwAC3f-8SP-43" value="country id" style="shape=partialRectangle;connectable=0;fillColor=none;top=0;left=0;bottom=0;right=0;align=left;spacingLeft=6;fontStyle=5;overflow=hidden;whiteSpace=wrap;html=1;labelBackgroundColor=none;strokeColor=#028090;fontColor=#E4FDE1;" vertex="1" parent="WCFa2Cr-OOJwAC3f-8SP-41">
          <mxGeometry x="28.75" width="86.25" height="30" as="geometry">
            <mxRectangle width="86.25" height="30" as="alternateBounds" />
          </mxGeometry>
        </mxCell>
        <mxCell id="WCFa2Cr-OOJwAC3f-8SP-44" value="" style="shape=tableRow;horizontal=0;startSize=0;swimlaneHead=0;swimlaneBody=0;fillColor=none;collapsible=0;dropTarget=0;points=[[0,0.5],[1,0.5]];portConstraint=eastwest;top=0;left=0;right=0;bottom=0;labelBackgroundColor=none;strokeColor=#028090;fontColor=#E4FDE1;" vertex="1" parent="WCFa2Cr-OOJwAC3f-8SP-40">
          <mxGeometry y="60" width="115" height="30" as="geometry" />
        </mxCell>
        <mxCell id="WCFa2Cr-OOJwAC3f-8SP-45" value="FK" style="shape=partialRectangle;connectable=0;fillColor=none;top=0;left=0;bottom=0;right=0;editable=1;overflow=hidden;whiteSpace=wrap;html=1;labelBackgroundColor=none;strokeColor=#028090;fontColor=#E4FDE1;" vertex="1" parent="WCFa2Cr-OOJwAC3f-8SP-44">
          <mxGeometry width="28.75" height="30" as="geometry">
            <mxRectangle width="28.75" height="30" as="alternateBounds" />
          </mxGeometry>
        </mxCell>
        <mxCell id="WCFa2Cr-OOJwAC3f-8SP-46" value="country name" style="shape=partialRectangle;connectable=0;fillColor=none;top=0;left=0;bottom=0;right=0;align=left;spacingLeft=6;overflow=hidden;whiteSpace=wrap;html=1;labelBackgroundColor=none;strokeColor=#028090;fontColor=#E4FDE1;" vertex="1" parent="WCFa2Cr-OOJwAC3f-8SP-44">
          <mxGeometry x="28.75" width="86.25" height="30" as="geometry">
            <mxRectangle width="86.25" height="30" as="alternateBounds" />
          </mxGeometry>
        </mxCell>
        <mxCell id="WCFa2Cr-OOJwAC3f-8SP-47" value="" style="shape=tableRow;horizontal=0;startSize=0;swimlaneHead=0;swimlaneBody=0;fillColor=none;collapsible=0;dropTarget=0;points=[[0,0.5],[1,0.5]];portConstraint=eastwest;top=0;left=0;right=0;bottom=0;labelBackgroundColor=none;strokeColor=#028090;fontColor=#E4FDE1;" vertex="1" parent="WCFa2Cr-OOJwAC3f-8SP-40">
          <mxGeometry y="90" width="115" height="25" as="geometry" />
        </mxCell>
        <mxCell id="WCFa2Cr-OOJwAC3f-8SP-48" value="" style="shape=partialRectangle;connectable=0;fillColor=none;top=0;left=0;bottom=0;right=0;editable=1;overflow=hidden;whiteSpace=wrap;html=1;labelBackgroundColor=none;strokeColor=#028090;fontColor=#E4FDE1;" vertex="1" parent="WCFa2Cr-OOJwAC3f-8SP-47">
          <mxGeometry width="28.75" height="25" as="geometry">
            <mxRectangle width="28.75" height="25" as="alternateBounds" />
          </mxGeometry>
        </mxCell>
        <mxCell id="WCFa2Cr-OOJwAC3f-8SP-49" value="country code" style="shape=partialRectangle;connectable=0;fillColor=none;top=0;left=0;bottom=0;right=0;align=left;spacingLeft=6;overflow=hidden;whiteSpace=wrap;html=1;labelBackgroundColor=none;strokeColor=#028090;fontColor=#E4FDE1;" vertex="1" parent="WCFa2Cr-OOJwAC3f-8SP-47">
          <mxGeometry x="28.75" width="86.25" height="25" as="geometry">
            <mxRectangle width="86.25" height="25" as="alternateBounds" />
          </mxGeometry>
        </mxCell>
        <mxCell id="WCFa2Cr-OOJwAC3f-8SP-53" value="address status" style="shape=table;startSize=30;container=1;collapsible=1;childLayout=tableLayout;fixedRows=1;rowLines=0;fontStyle=1;align=center;resizeLast=1;html=1;labelBackgroundColor=none;fillColor=#F45B69;strokeColor=#028090;fontColor=#E4FDE1;" vertex="1" parent="1">
          <mxGeometry x="625" y="99" width="150" height="110" as="geometry" />
        </mxCell>
        <mxCell id="WCFa2Cr-OOJwAC3f-8SP-54" value="" style="shape=tableRow;horizontal=0;startSize=0;swimlaneHead=0;swimlaneBody=0;fillColor=none;collapsible=0;dropTarget=0;points=[[0,0.5],[1,0.5]];portConstraint=eastwest;top=0;left=0;right=0;bottom=1;labelBackgroundColor=none;strokeColor=#028090;fontColor=#E4FDE1;" vertex="1" parent="WCFa2Cr-OOJwAC3f-8SP-53">
          <mxGeometry y="30" width="150" height="20" as="geometry" />
        </mxCell>
        <mxCell id="WCFa2Cr-OOJwAC3f-8SP-55" value="PK" style="shape=partialRectangle;connectable=0;fillColor=none;top=0;left=0;bottom=0;right=0;fontStyle=1;overflow=hidden;whiteSpace=wrap;html=1;labelBackgroundColor=none;strokeColor=#028090;fontColor=#E4FDE1;" vertex="1" parent="WCFa2Cr-OOJwAC3f-8SP-54">
          <mxGeometry width="30" height="20" as="geometry">
            <mxRectangle width="30" height="20" as="alternateBounds" />
          </mxGeometry>
        </mxCell>
        <mxCell id="WCFa2Cr-OOJwAC3f-8SP-56" value="status id" style="shape=partialRectangle;connectable=0;fillColor=none;top=0;left=0;bottom=0;right=0;align=left;spacingLeft=6;fontStyle=5;overflow=hidden;whiteSpace=wrap;html=1;labelBackgroundColor=none;strokeColor=#028090;fontColor=#E4FDE1;" vertex="1" parent="WCFa2Cr-OOJwAC3f-8SP-54">
          <mxGeometry x="30" width="120" height="20" as="geometry">
            <mxRectangle width="120" height="20" as="alternateBounds" />
          </mxGeometry>
        </mxCell>
        <mxCell id="WCFa2Cr-OOJwAC3f-8SP-57" value="" style="shape=tableRow;horizontal=0;startSize=0;swimlaneHead=0;swimlaneBody=0;fillColor=none;collapsible=0;dropTarget=0;points=[[0,0.5],[1,0.5]];portConstraint=eastwest;top=0;left=0;right=0;bottom=0;labelBackgroundColor=none;strokeColor=#028090;fontColor=#E4FDE1;" vertex="1" parent="WCFa2Cr-OOJwAC3f-8SP-53">
          <mxGeometry y="50" width="150" height="31" as="geometry" />
        </mxCell>
        <mxCell id="WCFa2Cr-OOJwAC3f-8SP-58" value="FK" style="shape=partialRectangle;connectable=0;fillColor=none;top=0;left=0;bottom=0;right=0;editable=1;overflow=hidden;whiteSpace=wrap;html=1;labelBackgroundColor=none;strokeColor=#028090;fontColor=#E4FDE1;" vertex="1" parent="WCFa2Cr-OOJwAC3f-8SP-57">
          <mxGeometry width="30" height="31" as="geometry">
            <mxRectangle width="30" height="31" as="alternateBounds" />
          </mxGeometry>
        </mxCell>
        <mxCell id="WCFa2Cr-OOJwAC3f-8SP-59" value="status name" style="shape=partialRectangle;connectable=0;fillColor=none;top=0;left=0;bottom=0;right=0;align=left;spacingLeft=6;overflow=hidden;whiteSpace=wrap;html=1;labelBackgroundColor=none;strokeColor=#028090;fontColor=#E4FDE1;" vertex="1" parent="WCFa2Cr-OOJwAC3f-8SP-57">
          <mxGeometry x="30" width="120" height="31" as="geometry">
            <mxRectangle width="120" height="31" as="alternateBounds" />
          </mxGeometry>
        </mxCell>
        <mxCell id="WCFa2Cr-OOJwAC3f-8SP-60" value="" style="shape=tableRow;horizontal=0;startSize=0;swimlaneHead=0;swimlaneBody=0;fillColor=none;collapsible=0;dropTarget=0;points=[[0,0.5],[1,0.5]];portConstraint=eastwest;top=0;left=0;right=0;bottom=0;labelBackgroundColor=none;strokeColor=#028090;fontColor=#E4FDE1;" vertex="1" parent="WCFa2Cr-OOJwAC3f-8SP-53">
          <mxGeometry y="81" width="150" height="29" as="geometry" />
        </mxCell>
        <mxCell id="WCFa2Cr-OOJwAC3f-8SP-61" value="" style="shape=partialRectangle;connectable=0;fillColor=none;top=0;left=0;bottom=0;right=0;editable=1;overflow=hidden;whiteSpace=wrap;html=1;labelBackgroundColor=none;strokeColor=#028090;fontColor=#E4FDE1;" vertex="1" parent="WCFa2Cr-OOJwAC3f-8SP-60">
          <mxGeometry width="30" height="29" as="geometry">
            <mxRectangle width="30" height="29" as="alternateBounds" />
          </mxGeometry>
        </mxCell>
        <mxCell id="WCFa2Cr-OOJwAC3f-8SP-62" value="description" style="shape=partialRectangle;connectable=0;fillColor=none;top=0;left=0;bottom=0;right=0;align=left;spacingLeft=6;overflow=hidden;whiteSpace=wrap;html=1;labelBackgroundColor=none;strokeColor=#028090;fontColor=#E4FDE1;" vertex="1" parent="WCFa2Cr-OOJwAC3f-8SP-60">
          <mxGeometry x="30" width="120" height="29" as="geometry">
            <mxRectangle width="120" height="29" as="alternateBounds" />
          </mxGeometry>
        </mxCell>
        <mxCell id="WCFa2Cr-OOJwAC3f-8SP-66" value="order status" style="shape=table;startSize=30;container=1;collapsible=1;childLayout=tableLayout;fixedRows=1;rowLines=0;fontStyle=1;align=center;resizeLast=1;html=1;labelBackgroundColor=none;fillColor=#F45B69;strokeColor=#028090;fontColor=#E4FDE1;" vertex="1" parent="1">
          <mxGeometry x="817" y="107" width="184" height="120" as="geometry" />
        </mxCell>
        <mxCell id="WCFa2Cr-OOJwAC3f-8SP-67" value="" style="shape=tableRow;horizontal=0;startSize=0;swimlaneHead=0;swimlaneBody=0;fillColor=none;collapsible=0;dropTarget=0;points=[[0,0.5],[1,0.5]];portConstraint=eastwest;top=0;left=0;right=0;bottom=1;labelBackgroundColor=none;strokeColor=#028090;fontColor=#E4FDE1;" vertex="1" parent="WCFa2Cr-OOJwAC3f-8SP-66">
          <mxGeometry y="30" width="184" height="30" as="geometry" />
        </mxCell>
        <mxCell id="WCFa2Cr-OOJwAC3f-8SP-68" value="PK" style="shape=partialRectangle;connectable=0;fillColor=none;top=0;left=0;bottom=0;right=0;fontStyle=1;overflow=hidden;whiteSpace=wrap;html=1;labelBackgroundColor=none;strokeColor=#028090;fontColor=#E4FDE1;" vertex="1" parent="WCFa2Cr-OOJwAC3f-8SP-67">
          <mxGeometry width="31.75" height="30" as="geometry">
            <mxRectangle width="31.75" height="30" as="alternateBounds" />
          </mxGeometry>
        </mxCell>
        <mxCell id="WCFa2Cr-OOJwAC3f-8SP-69" value="status id" style="shape=partialRectangle;connectable=0;fillColor=none;top=0;left=0;bottom=0;right=0;align=left;spacingLeft=6;fontStyle=5;overflow=hidden;whiteSpace=wrap;html=1;labelBackgroundColor=none;strokeColor=#028090;fontColor=#E4FDE1;" vertex="1" parent="WCFa2Cr-OOJwAC3f-8SP-67">
          <mxGeometry x="31.75" width="152.25" height="30" as="geometry">
            <mxRectangle width="152.25" height="30" as="alternateBounds" />
          </mxGeometry>
        </mxCell>
        <mxCell id="WCFa2Cr-OOJwAC3f-8SP-70" value="" style="shape=tableRow;horizontal=0;startSize=0;swimlaneHead=0;swimlaneBody=0;fillColor=none;collapsible=0;dropTarget=0;points=[[0,0.5],[1,0.5]];portConstraint=eastwest;top=0;left=0;right=0;bottom=0;labelBackgroundColor=none;strokeColor=#028090;fontColor=#E4FDE1;" vertex="1" parent="WCFa2Cr-OOJwAC3f-8SP-66">
          <mxGeometry y="60" width="184" height="30" as="geometry" />
        </mxCell>
        <mxCell id="WCFa2Cr-OOJwAC3f-8SP-71" value="FK" style="shape=partialRectangle;connectable=0;fillColor=none;top=0;left=0;bottom=0;right=0;editable=1;overflow=hidden;whiteSpace=wrap;html=1;labelBackgroundColor=none;strokeColor=#028090;fontColor=#E4FDE1;" vertex="1" parent="WCFa2Cr-OOJwAC3f-8SP-70">
          <mxGeometry width="31.75" height="30" as="geometry">
            <mxRectangle width="31.75" height="30" as="alternateBounds" />
          </mxGeometry>
        </mxCell>
        <mxCell id="WCFa2Cr-OOJwAC3f-8SP-72" value="status name" style="shape=partialRectangle;connectable=0;fillColor=none;top=0;left=0;bottom=0;right=0;align=left;spacingLeft=6;overflow=hidden;whiteSpace=wrap;html=1;labelBackgroundColor=none;strokeColor=#028090;fontColor=#E4FDE1;" vertex="1" parent="WCFa2Cr-OOJwAC3f-8SP-70">
          <mxGeometry x="31.75" width="152.25" height="30" as="geometry">
            <mxRectangle width="152.25" height="30" as="alternateBounds" />
          </mxGeometry>
        </mxCell>
        <mxCell id="WCFa2Cr-OOJwAC3f-8SP-73" value="" style="shape=tableRow;horizontal=0;startSize=0;swimlaneHead=0;swimlaneBody=0;fillColor=none;collapsible=0;dropTarget=0;points=[[0,0.5],[1,0.5]];portConstraint=eastwest;top=0;left=0;right=0;bottom=0;labelBackgroundColor=none;strokeColor=#028090;fontColor=#E4FDE1;" vertex="1" parent="WCFa2Cr-OOJwAC3f-8SP-66">
          <mxGeometry y="90" width="184" height="30" as="geometry" />
        </mxCell>
        <mxCell id="WCFa2Cr-OOJwAC3f-8SP-74" value="" style="shape=partialRectangle;connectable=0;fillColor=none;top=0;left=0;bottom=0;right=0;editable=1;overflow=hidden;whiteSpace=wrap;html=1;labelBackgroundColor=none;strokeColor=#028090;fontColor=#E4FDE1;" vertex="1" parent="WCFa2Cr-OOJwAC3f-8SP-73">
          <mxGeometry width="31.75" height="30" as="geometry">
            <mxRectangle width="31.75" height="30" as="alternateBounds" />
          </mxGeometry>
        </mxCell>
        <mxCell id="WCFa2Cr-OOJwAC3f-8SP-75" value="description" style="shape=partialRectangle;connectable=0;fillColor=none;top=0;left=0;bottom=0;right=0;align=left;spacingLeft=6;overflow=hidden;whiteSpace=wrap;html=1;labelBackgroundColor=none;strokeColor=#028090;fontColor=#E4FDE1;" vertex="1" parent="WCFa2Cr-OOJwAC3f-8SP-73">
          <mxGeometry x="31.75" width="152.25" height="30" as="geometry">
            <mxRectangle width="152.25" height="30" as="alternateBounds" />
          </mxGeometry>
        </mxCell>
        <mxCell id="WCFa2Cr-OOJwAC3f-8SP-80" value="shipping method" style="shape=table;startSize=30;container=1;collapsible=1;childLayout=tableLayout;fixedRows=1;rowLines=0;fontStyle=1;align=center;resizeLast=1;html=1;labelBackgroundColor=none;fillColor=#F45B69;strokeColor=#028090;fontColor=#E4FDE1;" vertex="1" parent="1">
          <mxGeometry x="817" y="348" width="150" height="147.37931034482773" as="geometry" />
        </mxCell>
        <mxCell id="WCFa2Cr-OOJwAC3f-8SP-81" value="" style="shape=tableRow;horizontal=0;startSize=0;swimlaneHead=0;swimlaneBody=0;fillColor=none;collapsible=0;dropTarget=0;points=[[0,0.5],[1,0.5]];portConstraint=eastwest;top=0;left=0;right=0;bottom=1;labelBackgroundColor=none;strokeColor=#028090;fontColor=#E4FDE1;" vertex="1" parent="WCFa2Cr-OOJwAC3f-8SP-80">
          <mxGeometry y="30" width="150" height="30" as="geometry" />
        </mxCell>
        <mxCell id="WCFa2Cr-OOJwAC3f-8SP-82" value="PK" style="shape=partialRectangle;connectable=0;fillColor=none;top=0;left=0;bottom=0;right=0;fontStyle=1;overflow=hidden;whiteSpace=wrap;html=1;labelBackgroundColor=none;strokeColor=#028090;fontColor=#E4FDE1;" vertex="1" parent="WCFa2Cr-OOJwAC3f-8SP-81">
          <mxGeometry width="30" height="30" as="geometry">
            <mxRectangle width="30" height="30" as="alternateBounds" />
          </mxGeometry>
        </mxCell>
        <mxCell id="WCFa2Cr-OOJwAC3f-8SP-83" value="METHOD ID" style="shape=partialRectangle;connectable=0;fillColor=none;top=0;left=0;bottom=0;right=0;align=left;spacingLeft=6;fontStyle=5;overflow=hidden;whiteSpace=wrap;html=1;labelBackgroundColor=none;strokeColor=#028090;fontColor=#E4FDE1;" vertex="1" parent="WCFa2Cr-OOJwAC3f-8SP-81">
          <mxGeometry x="30" width="120" height="30" as="geometry">
            <mxRectangle width="120" height="30" as="alternateBounds" />
          </mxGeometry>
        </mxCell>
        <mxCell id="WCFa2Cr-OOJwAC3f-8SP-84" value="" style="shape=tableRow;horizontal=0;startSize=0;swimlaneHead=0;swimlaneBody=0;fillColor=none;collapsible=0;dropTarget=0;points=[[0,0.5],[1,0.5]];portConstraint=eastwest;top=0;left=0;right=0;bottom=0;labelBackgroundColor=none;strokeColor=#028090;fontColor=#E4FDE1;" vertex="1" parent="WCFa2Cr-OOJwAC3f-8SP-80">
          <mxGeometry y="60" width="150" height="30" as="geometry" />
        </mxCell>
        <mxCell id="WCFa2Cr-OOJwAC3f-8SP-85" value="FK" style="shape=partialRectangle;connectable=0;fillColor=none;top=0;left=0;bottom=0;right=0;editable=1;overflow=hidden;whiteSpace=wrap;html=1;labelBackgroundColor=none;strokeColor=#028090;fontColor=#E4FDE1;" vertex="1" parent="WCFa2Cr-OOJwAC3f-8SP-84">
          <mxGeometry width="30" height="30" as="geometry">
            <mxRectangle width="30" height="30" as="alternateBounds" />
          </mxGeometry>
        </mxCell>
        <mxCell id="WCFa2Cr-OOJwAC3f-8SP-86" value="method name" style="shape=partialRectangle;connectable=0;fillColor=none;top=0;left=0;bottom=0;right=0;align=left;spacingLeft=6;overflow=hidden;whiteSpace=wrap;html=1;labelBackgroundColor=none;strokeColor=#028090;fontColor=#E4FDE1;" vertex="1" parent="WCFa2Cr-OOJwAC3f-8SP-84">
          <mxGeometry x="30" width="120" height="30" as="geometry">
            <mxRectangle width="120" height="30" as="alternateBounds" />
          </mxGeometry>
        </mxCell>
        <mxCell id="WCFa2Cr-OOJwAC3f-8SP-87" value="" style="shape=tableRow;horizontal=0;startSize=0;swimlaneHead=0;swimlaneBody=0;fillColor=none;collapsible=0;dropTarget=0;points=[[0,0.5],[1,0.5]];portConstraint=eastwest;top=0;left=0;right=0;bottom=0;labelBackgroundColor=none;strokeColor=#028090;fontColor=#E4FDE1;" vertex="1" parent="WCFa2Cr-OOJwAC3f-8SP-80">
          <mxGeometry y="90" width="150" height="30" as="geometry" />
        </mxCell>
        <mxCell id="WCFa2Cr-OOJwAC3f-8SP-88" value="" style="shape=partialRectangle;connectable=0;fillColor=none;top=0;left=0;bottom=0;right=0;editable=1;overflow=hidden;whiteSpace=wrap;html=1;labelBackgroundColor=none;strokeColor=#028090;fontColor=#E4FDE1;" vertex="1" parent="WCFa2Cr-OOJwAC3f-8SP-87">
          <mxGeometry width="30" height="30" as="geometry">
            <mxRectangle width="30" height="30" as="alternateBounds" />
          </mxGeometry>
        </mxCell>
        <mxCell id="WCFa2Cr-OOJwAC3f-8SP-89" value="cost" style="shape=partialRectangle;connectable=0;fillColor=none;top=0;left=0;bottom=0;right=0;align=left;spacingLeft=6;overflow=hidden;whiteSpace=wrap;html=1;labelBackgroundColor=none;strokeColor=#028090;fontColor=#E4FDE1;" vertex="1" parent="WCFa2Cr-OOJwAC3f-8SP-87">
          <mxGeometry x="30" width="120" height="30" as="geometry">
            <mxRectangle width="120" height="30" as="alternateBounds" />
          </mxGeometry>
        </mxCell>
        <mxCell id="WCFa2Cr-OOJwAC3f-8SP-90" value="" style="shape=tableRow;horizontal=0;startSize=0;swimlaneHead=0;swimlaneBody=0;fillColor=none;collapsible=0;dropTarget=0;points=[[0,0.5],[1,0.5]];portConstraint=eastwest;top=0;left=0;right=0;bottom=0;labelBackgroundColor=none;strokeColor=#028090;fontColor=#E4FDE1;" vertex="1" parent="WCFa2Cr-OOJwAC3f-8SP-80">
          <mxGeometry y="120" width="150" height="27" as="geometry" />
        </mxCell>
        <mxCell id="WCFa2Cr-OOJwAC3f-8SP-91" value="" style="shape=partialRectangle;connectable=0;fillColor=none;top=0;left=0;bottom=0;right=0;editable=1;overflow=hidden;whiteSpace=wrap;html=1;labelBackgroundColor=none;strokeColor=#028090;fontColor=#E4FDE1;" vertex="1" parent="WCFa2Cr-OOJwAC3f-8SP-90">
          <mxGeometry width="30" height="27" as="geometry">
            <mxRectangle width="30" height="27" as="alternateBounds" />
          </mxGeometry>
        </mxCell>
        <mxCell id="WCFa2Cr-OOJwAC3f-8SP-92" value="estimated dates" style="shape=partialRectangle;connectable=0;fillColor=none;top=0;left=0;bottom=0;right=0;align=left;spacingLeft=6;overflow=hidden;whiteSpace=wrap;html=1;labelBackgroundColor=none;strokeColor=#028090;fontColor=#E4FDE1;" vertex="1" parent="WCFa2Cr-OOJwAC3f-8SP-90">
          <mxGeometry x="30" width="120" height="27" as="geometry">
            <mxRectangle width="120" height="27" as="alternateBounds" />
          </mxGeometry>
        </mxCell>
        <mxCell id="WCFa2Cr-OOJwAC3f-8SP-93" value="order history" style="shape=table;startSize=30;container=1;collapsible=1;childLayout=tableLayout;fixedRows=1;rowLines=0;fontStyle=1;align=center;resizeLast=1;html=1;labelBackgroundColor=none;fillColor=#F45B69;strokeColor=#028090;fontColor=#E4FDE1;" vertex="1" parent="1">
          <mxGeometry x="816" y="582" width="130" height="150" as="geometry" />
        </mxCell>
        <mxCell id="WCFa2Cr-OOJwAC3f-8SP-94" value="" style="shape=tableRow;horizontal=0;startSize=0;swimlaneHead=0;swimlaneBody=0;fillColor=none;collapsible=0;dropTarget=0;points=[[0,0.5],[1,0.5]];portConstraint=eastwest;top=0;left=0;right=0;bottom=1;labelBackgroundColor=none;strokeColor=#028090;fontColor=#E4FDE1;" vertex="1" parent="WCFa2Cr-OOJwAC3f-8SP-93">
          <mxGeometry y="30" width="130" height="30" as="geometry" />
        </mxCell>
        <mxCell id="WCFa2Cr-OOJwAC3f-8SP-95" value="pk" style="shape=partialRectangle;connectable=0;fillColor=none;top=0;left=0;bottom=0;right=0;fontStyle=1;overflow=hidden;whiteSpace=wrap;html=1;labelBackgroundColor=none;strokeColor=#028090;fontColor=#E4FDE1;" vertex="1" parent="WCFa2Cr-OOJwAC3f-8SP-94">
          <mxGeometry width="30" height="30" as="geometry">
            <mxRectangle width="30" height="30" as="alternateBounds" />
          </mxGeometry>
        </mxCell>
        <mxCell id="WCFa2Cr-OOJwAC3f-8SP-96" value="history id" style="shape=partialRectangle;connectable=0;fillColor=none;top=0;left=0;bottom=0;right=0;align=left;spacingLeft=6;fontStyle=5;overflow=hidden;whiteSpace=wrap;html=1;labelBackgroundColor=none;strokeColor=#028090;fontColor=#E4FDE1;" vertex="1" parent="WCFa2Cr-OOJwAC3f-8SP-94">
          <mxGeometry x="30" width="100" height="30" as="geometry">
            <mxRectangle width="100" height="30" as="alternateBounds" />
          </mxGeometry>
        </mxCell>
        <mxCell id="WCFa2Cr-OOJwAC3f-8SP-97" value="" style="shape=tableRow;horizontal=0;startSize=0;swimlaneHead=0;swimlaneBody=0;fillColor=none;collapsible=0;dropTarget=0;points=[[0,0.5],[1,0.5]];portConstraint=eastwest;top=0;left=0;right=0;bottom=0;labelBackgroundColor=none;strokeColor=#028090;fontColor=#E4FDE1;" vertex="1" parent="WCFa2Cr-OOJwAC3f-8SP-93">
          <mxGeometry y="60" width="130" height="30" as="geometry" />
        </mxCell>
        <mxCell id="WCFa2Cr-OOJwAC3f-8SP-98" value="FK" style="shape=partialRectangle;connectable=0;fillColor=none;top=0;left=0;bottom=0;right=0;editable=1;overflow=hidden;whiteSpace=wrap;html=1;labelBackgroundColor=none;strokeColor=#028090;fontColor=#E4FDE1;" vertex="1" parent="WCFa2Cr-OOJwAC3f-8SP-97">
          <mxGeometry width="30" height="30" as="geometry">
            <mxRectangle width="30" height="30" as="alternateBounds" />
          </mxGeometry>
        </mxCell>
        <mxCell id="WCFa2Cr-OOJwAC3f-8SP-99" value="order id" style="shape=partialRectangle;connectable=0;fillColor=none;top=0;left=0;bottom=0;right=0;align=left;spacingLeft=6;overflow=hidden;whiteSpace=wrap;html=1;labelBackgroundColor=none;strokeColor=#028090;fontColor=#E4FDE1;" vertex="1" parent="WCFa2Cr-OOJwAC3f-8SP-97">
          <mxGeometry x="30" width="100" height="30" as="geometry">
            <mxRectangle width="100" height="30" as="alternateBounds" />
          </mxGeometry>
        </mxCell>
        <mxCell id="WCFa2Cr-OOJwAC3f-8SP-100" value="" style="shape=tableRow;horizontal=0;startSize=0;swimlaneHead=0;swimlaneBody=0;fillColor=none;collapsible=0;dropTarget=0;points=[[0,0.5],[1,0.5]];portConstraint=eastwest;top=0;left=0;right=0;bottom=0;labelBackgroundColor=none;strokeColor=#028090;fontColor=#E4FDE1;" vertex="1" parent="WCFa2Cr-OOJwAC3f-8SP-93">
          <mxGeometry y="90" width="130" height="30" as="geometry" />
        </mxCell>
        <mxCell id="WCFa2Cr-OOJwAC3f-8SP-101" value="" style="shape=partialRectangle;connectable=0;fillColor=none;top=0;left=0;bottom=0;right=0;editable=1;overflow=hidden;whiteSpace=wrap;html=1;labelBackgroundColor=none;strokeColor=#028090;fontColor=#E4FDE1;" vertex="1" parent="WCFa2Cr-OOJwAC3f-8SP-100">
          <mxGeometry width="30" height="30" as="geometry">
            <mxRectangle width="30" height="30" as="alternateBounds" />
          </mxGeometry>
        </mxCell>
        <mxCell id="WCFa2Cr-OOJwAC3f-8SP-102" value="status id" style="shape=partialRectangle;connectable=0;fillColor=none;top=0;left=0;bottom=0;right=0;align=left;spacingLeft=6;overflow=hidden;whiteSpace=wrap;html=1;labelBackgroundColor=none;strokeColor=#028090;fontColor=#E4FDE1;" vertex="1" parent="WCFa2Cr-OOJwAC3f-8SP-100">
          <mxGeometry x="30" width="100" height="30" as="geometry">
            <mxRectangle width="100" height="30" as="alternateBounds" />
          </mxGeometry>
        </mxCell>
        <mxCell id="WCFa2Cr-OOJwAC3f-8SP-103" value="" style="shape=tableRow;horizontal=0;startSize=0;swimlaneHead=0;swimlaneBody=0;fillColor=none;collapsible=0;dropTarget=0;points=[[0,0.5],[1,0.5]];portConstraint=eastwest;top=0;left=0;right=0;bottom=0;labelBackgroundColor=none;strokeColor=#028090;fontColor=#E4FDE1;" vertex="1" parent="WCFa2Cr-OOJwAC3f-8SP-93">
          <mxGeometry y="120" width="130" height="30" as="geometry" />
        </mxCell>
        <mxCell id="WCFa2Cr-OOJwAC3f-8SP-104" value="" style="shape=partialRectangle;connectable=0;fillColor=none;top=0;left=0;bottom=0;right=0;editable=1;overflow=hidden;whiteSpace=wrap;html=1;labelBackgroundColor=none;strokeColor=#028090;fontColor=#E4FDE1;" vertex="1" parent="WCFa2Cr-OOJwAC3f-8SP-103">
          <mxGeometry width="30" height="30" as="geometry">
            <mxRectangle width="30" height="30" as="alternateBounds" />
          </mxGeometry>
        </mxCell>
        <mxCell id="WCFa2Cr-OOJwAC3f-8SP-105" value="status date" style="shape=partialRectangle;connectable=0;fillColor=none;top=0;left=0;bottom=0;right=0;align=left;spacingLeft=6;overflow=hidden;whiteSpace=wrap;html=1;labelBackgroundColor=none;strokeColor=#028090;fontColor=#E4FDE1;" vertex="1" parent="WCFa2Cr-OOJwAC3f-8SP-103">
          <mxGeometry x="30" width="100" height="30" as="geometry">
            <mxRectangle width="100" height="30" as="alternateBounds" />
          </mxGeometry>
        </mxCell>
        <mxCell id="WCFa2Cr-OOJwAC3f-8SP-106" value="customer" style="shape=table;startSize=30;container=1;collapsible=1;childLayout=tableLayout;fixedRows=1;rowLines=0;fontStyle=1;align=center;resizeLast=1;html=1;labelBackgroundColor=none;fillColor=#F45B69;strokeColor=#028090;fontColor=#E4FDE1;" vertex="1" parent="1">
          <mxGeometry x="595" y="329" width="180" height="152" as="geometry" />
        </mxCell>
        <mxCell id="WCFa2Cr-OOJwAC3f-8SP-107" value="" style="shape=tableRow;horizontal=0;startSize=0;swimlaneHead=0;swimlaneBody=0;fillColor=none;collapsible=0;dropTarget=0;points=[[0,0.5],[1,0.5]];portConstraint=eastwest;top=0;left=0;right=0;bottom=1;labelBackgroundColor=none;strokeColor=#028090;fontColor=#E4FDE1;" vertex="1" parent="WCFa2Cr-OOJwAC3f-8SP-106">
          <mxGeometry y="30" width="180" height="32" as="geometry" />
        </mxCell>
        <mxCell id="WCFa2Cr-OOJwAC3f-8SP-108" value="PK" style="shape=partialRectangle;connectable=0;fillColor=none;top=0;left=0;bottom=0;right=0;fontStyle=1;overflow=hidden;whiteSpace=wrap;html=1;labelBackgroundColor=none;strokeColor=#028090;fontColor=#E4FDE1;" vertex="1" parent="WCFa2Cr-OOJwAC3f-8SP-107">
          <mxGeometry width="30" height="32" as="geometry">
            <mxRectangle width="30" height="32" as="alternateBounds" />
          </mxGeometry>
        </mxCell>
        <mxCell id="WCFa2Cr-OOJwAC3f-8SP-109" value="customer id" style="shape=partialRectangle;connectable=0;fillColor=none;top=0;left=0;bottom=0;right=0;align=left;spacingLeft=6;fontStyle=5;overflow=hidden;whiteSpace=wrap;html=1;labelBackgroundColor=none;strokeColor=#028090;fontColor=#E4FDE1;" vertex="1" parent="WCFa2Cr-OOJwAC3f-8SP-107">
          <mxGeometry x="30" width="150" height="32" as="geometry">
            <mxRectangle width="150" height="32" as="alternateBounds" />
          </mxGeometry>
        </mxCell>
        <mxCell id="WCFa2Cr-OOJwAC3f-8SP-110" value="" style="shape=tableRow;horizontal=0;startSize=0;swimlaneHead=0;swimlaneBody=0;fillColor=none;collapsible=0;dropTarget=0;points=[[0,0.5],[1,0.5]];portConstraint=eastwest;top=0;left=0;right=0;bottom=0;labelBackgroundColor=none;strokeColor=#028090;fontColor=#E4FDE1;" vertex="1" parent="WCFa2Cr-OOJwAC3f-8SP-106">
          <mxGeometry y="62" width="180" height="30" as="geometry" />
        </mxCell>
        <mxCell id="WCFa2Cr-OOJwAC3f-8SP-111" value="FK" style="shape=partialRectangle;connectable=0;fillColor=none;top=0;left=0;bottom=0;right=0;editable=1;overflow=hidden;whiteSpace=wrap;html=1;labelBackgroundColor=none;strokeColor=#028090;fontColor=#E4FDE1;" vertex="1" parent="WCFa2Cr-OOJwAC3f-8SP-110">
          <mxGeometry width="30" height="30" as="geometry">
            <mxRectangle width="30" height="30" as="alternateBounds" />
          </mxGeometry>
        </mxCell>
        <mxCell id="WCFa2Cr-OOJwAC3f-8SP-112" value="first name&lt;div&gt;last name&lt;/div&gt;" style="shape=partialRectangle;connectable=0;fillColor=none;top=0;left=0;bottom=0;right=0;align=left;spacingLeft=6;overflow=hidden;whiteSpace=wrap;html=1;labelBackgroundColor=none;strokeColor=#028090;fontColor=#E4FDE1;" vertex="1" parent="WCFa2Cr-OOJwAC3f-8SP-110">
          <mxGeometry x="30" width="150" height="30" as="geometry">
            <mxRectangle width="150" height="30" as="alternateBounds" />
          </mxGeometry>
        </mxCell>
        <mxCell id="WCFa2Cr-OOJwAC3f-8SP-113" value="" style="shape=tableRow;horizontal=0;startSize=0;swimlaneHead=0;swimlaneBody=0;fillColor=none;collapsible=0;dropTarget=0;points=[[0,0.5],[1,0.5]];portConstraint=eastwest;top=0;left=0;right=0;bottom=0;labelBackgroundColor=none;strokeColor=#028090;fontColor=#E4FDE1;" vertex="1" parent="WCFa2Cr-OOJwAC3f-8SP-106">
          <mxGeometry y="92" width="180" height="30" as="geometry" />
        </mxCell>
        <mxCell id="WCFa2Cr-OOJwAC3f-8SP-114" value="" style="shape=partialRectangle;connectable=0;fillColor=none;top=0;left=0;bottom=0;right=0;editable=1;overflow=hidden;whiteSpace=wrap;html=1;labelBackgroundColor=none;strokeColor=#028090;fontColor=#E4FDE1;" vertex="1" parent="WCFa2Cr-OOJwAC3f-8SP-113">
          <mxGeometry width="30" height="30" as="geometry">
            <mxRectangle width="30" height="30" as="alternateBounds" />
          </mxGeometry>
        </mxCell>
        <mxCell id="WCFa2Cr-OOJwAC3f-8SP-115" value="email&lt;div&gt;phone&lt;/div&gt;" style="shape=partialRectangle;connectable=0;fillColor=none;top=0;left=0;bottom=0;right=0;align=left;spacingLeft=6;overflow=hidden;whiteSpace=wrap;html=1;labelBackgroundColor=none;strokeColor=#028090;fontColor=#E4FDE1;" vertex="1" parent="WCFa2Cr-OOJwAC3f-8SP-113">
          <mxGeometry x="30" width="150" height="30" as="geometry">
            <mxRectangle width="150" height="30" as="alternateBounds" />
          </mxGeometry>
        </mxCell>
        <mxCell id="WCFa2Cr-OOJwAC3f-8SP-116" value="" style="shape=tableRow;horizontal=0;startSize=0;swimlaneHead=0;swimlaneBody=0;fillColor=none;collapsible=0;dropTarget=0;points=[[0,0.5],[1,0.5]];portConstraint=eastwest;top=0;left=0;right=0;bottom=0;labelBackgroundColor=none;strokeColor=#028090;fontColor=#E4FDE1;" vertex="1" parent="WCFa2Cr-OOJwAC3f-8SP-106">
          <mxGeometry y="122" width="180" height="30" as="geometry" />
        </mxCell>
        <mxCell id="WCFa2Cr-OOJwAC3f-8SP-117" value="" style="shape=partialRectangle;connectable=0;fillColor=none;top=0;left=0;bottom=0;right=0;editable=1;overflow=hidden;whiteSpace=wrap;html=1;labelBackgroundColor=none;strokeColor=#028090;fontColor=#E4FDE1;" vertex="1" parent="WCFa2Cr-OOJwAC3f-8SP-116">
          <mxGeometry width="30" height="30" as="geometry">
            <mxRectangle width="30" height="30" as="alternateBounds" />
          </mxGeometry>
        </mxCell>
        <mxCell id="WCFa2Cr-OOJwAC3f-8SP-118" value="registration date&lt;div&gt;password hash&lt;/div&gt;" style="shape=partialRectangle;connectable=0;fillColor=none;top=0;left=0;bottom=0;right=0;align=left;spacingLeft=6;overflow=hidden;whiteSpace=wrap;html=1;labelBackgroundColor=none;strokeColor=#028090;fontColor=#E4FDE1;" vertex="1" parent="WCFa2Cr-OOJwAC3f-8SP-116">
          <mxGeometry x="30" width="150" height="30" as="geometry">
            <mxRectangle width="150" height="30" as="alternateBounds" />
          </mxGeometry>
        </mxCell>
        <mxCell id="WCFa2Cr-OOJwAC3f-8SP-119" value="order line" style="shape=table;startSize=30;container=1;collapsible=1;childLayout=tableLayout;fixedRows=1;rowLines=0;fontStyle=1;align=center;resizeLast=1;html=1;labelBackgroundColor=none;fillColor=#F45B69;strokeColor=#028090;fontColor=#E4FDE1;" vertex="1" parent="1">
          <mxGeometry x="585" y="555" width="180" height="145" as="geometry" />
        </mxCell>
        <mxCell id="WCFa2Cr-OOJwAC3f-8SP-120" value="" style="shape=tableRow;horizontal=0;startSize=0;swimlaneHead=0;swimlaneBody=0;fillColor=none;collapsible=0;dropTarget=0;points=[[0,0.5],[1,0.5]];portConstraint=eastwest;top=0;left=0;right=0;bottom=1;labelBackgroundColor=none;strokeColor=#028090;fontColor=#E4FDE1;" vertex="1" parent="WCFa2Cr-OOJwAC3f-8SP-119">
          <mxGeometry y="30" width="180" height="30" as="geometry" />
        </mxCell>
        <mxCell id="WCFa2Cr-OOJwAC3f-8SP-121" value="PK" style="shape=partialRectangle;connectable=0;fillColor=none;top=0;left=0;bottom=0;right=0;fontStyle=1;overflow=hidden;whiteSpace=wrap;html=1;labelBackgroundColor=none;strokeColor=#028090;fontColor=#E4FDE1;" vertex="1" parent="WCFa2Cr-OOJwAC3f-8SP-120">
          <mxGeometry width="30" height="30" as="geometry">
            <mxRectangle width="30" height="30" as="alternateBounds" />
          </mxGeometry>
        </mxCell>
        <mxCell id="WCFa2Cr-OOJwAC3f-8SP-122" value="line id" style="shape=partialRectangle;connectable=0;fillColor=none;top=0;left=0;bottom=0;right=0;align=left;spacingLeft=6;fontStyle=5;overflow=hidden;whiteSpace=wrap;html=1;labelBackgroundColor=none;strokeColor=#028090;fontColor=#E4FDE1;" vertex="1" parent="WCFa2Cr-OOJwAC3f-8SP-120">
          <mxGeometry x="30" width="150" height="30" as="geometry">
            <mxRectangle width="150" height="30" as="alternateBounds" />
          </mxGeometry>
        </mxCell>
        <mxCell id="WCFa2Cr-OOJwAC3f-8SP-123" value="" style="shape=tableRow;horizontal=0;startSize=0;swimlaneHead=0;swimlaneBody=0;fillColor=none;collapsible=0;dropTarget=0;points=[[0,0.5],[1,0.5]];portConstraint=eastwest;top=0;left=0;right=0;bottom=0;labelBackgroundColor=none;strokeColor=#028090;fontColor=#E4FDE1;" vertex="1" parent="WCFa2Cr-OOJwAC3f-8SP-119">
          <mxGeometry y="60" width="180" height="35" as="geometry" />
        </mxCell>
        <mxCell id="WCFa2Cr-OOJwAC3f-8SP-124" value="FK" style="shape=partialRectangle;connectable=0;fillColor=none;top=0;left=0;bottom=0;right=0;editable=1;overflow=hidden;whiteSpace=wrap;html=1;labelBackgroundColor=none;strokeColor=#028090;fontColor=#E4FDE1;" vertex="1" parent="WCFa2Cr-OOJwAC3f-8SP-123">
          <mxGeometry width="30" height="35" as="geometry">
            <mxRectangle width="30" height="35" as="alternateBounds" />
          </mxGeometry>
        </mxCell>
        <mxCell id="WCFa2Cr-OOJwAC3f-8SP-125" value="order id" style="shape=partialRectangle;connectable=0;fillColor=none;top=0;left=0;bottom=0;right=0;align=left;spacingLeft=6;overflow=hidden;whiteSpace=wrap;html=1;labelBackgroundColor=none;strokeColor=#028090;fontColor=#E4FDE1;" vertex="1" parent="WCFa2Cr-OOJwAC3f-8SP-123">
          <mxGeometry x="30" width="150" height="35" as="geometry">
            <mxRectangle width="150" height="35" as="alternateBounds" />
          </mxGeometry>
        </mxCell>
        <mxCell id="WCFa2Cr-OOJwAC3f-8SP-126" value="" style="shape=tableRow;horizontal=0;startSize=0;swimlaneHead=0;swimlaneBody=0;fillColor=none;collapsible=0;dropTarget=0;points=[[0,0.5],[1,0.5]];portConstraint=eastwest;top=0;left=0;right=0;bottom=0;labelBackgroundColor=none;strokeColor=#028090;fontColor=#E4FDE1;" vertex="1" parent="WCFa2Cr-OOJwAC3f-8SP-119">
          <mxGeometry y="95" width="180" height="20" as="geometry" />
        </mxCell>
        <mxCell id="WCFa2Cr-OOJwAC3f-8SP-127" value="" style="shape=partialRectangle;connectable=0;fillColor=none;top=0;left=0;bottom=0;right=0;editable=1;overflow=hidden;whiteSpace=wrap;html=1;labelBackgroundColor=none;strokeColor=#028090;fontColor=#E4FDE1;" vertex="1" parent="WCFa2Cr-OOJwAC3f-8SP-126">
          <mxGeometry width="30" height="20" as="geometry">
            <mxRectangle width="30" height="20" as="alternateBounds" />
          </mxGeometry>
        </mxCell>
        <mxCell id="WCFa2Cr-OOJwAC3f-8SP-128" value="quantity" style="shape=partialRectangle;connectable=0;fillColor=none;top=0;left=0;bottom=0;right=0;align=left;spacingLeft=6;overflow=hidden;whiteSpace=wrap;html=1;labelBackgroundColor=none;strokeColor=#028090;fontColor=#E4FDE1;" vertex="1" parent="WCFa2Cr-OOJwAC3f-8SP-126">
          <mxGeometry x="30" width="150" height="20" as="geometry">
            <mxRectangle width="150" height="20" as="alternateBounds" />
          </mxGeometry>
        </mxCell>
        <mxCell id="WCFa2Cr-OOJwAC3f-8SP-129" value="" style="shape=tableRow;horizontal=0;startSize=0;swimlaneHead=0;swimlaneBody=0;fillColor=none;collapsible=0;dropTarget=0;points=[[0,0.5],[1,0.5]];portConstraint=eastwest;top=0;left=0;right=0;bottom=0;labelBackgroundColor=none;strokeColor=#028090;fontColor=#E4FDE1;" vertex="1" parent="WCFa2Cr-OOJwAC3f-8SP-119">
          <mxGeometry y="115" width="180" height="30" as="geometry" />
        </mxCell>
        <mxCell id="WCFa2Cr-OOJwAC3f-8SP-130" value="" style="shape=partialRectangle;connectable=0;fillColor=none;top=0;left=0;bottom=0;right=0;editable=1;overflow=hidden;whiteSpace=wrap;html=1;labelBackgroundColor=none;strokeColor=#028090;fontColor=#E4FDE1;" vertex="1" parent="WCFa2Cr-OOJwAC3f-8SP-129">
          <mxGeometry width="30" height="30" as="geometry">
            <mxRectangle width="30" height="30" as="alternateBounds" />
          </mxGeometry>
        </mxCell>
        <mxCell id="WCFa2Cr-OOJwAC3f-8SP-131" value="price per unit" style="shape=partialRectangle;connectable=0;fillColor=none;top=0;left=0;bottom=0;right=0;align=left;spacingLeft=6;overflow=hidden;whiteSpace=wrap;html=1;labelBackgroundColor=none;strokeColor=#028090;fontColor=#E4FDE1;" vertex="1" parent="WCFa2Cr-OOJwAC3f-8SP-129">
          <mxGeometry x="30" width="150" height="30" as="geometry">
            <mxRectangle width="150" height="30" as="alternateBounds" />
          </mxGeometry>
        </mxCell>
        <mxCell id="WCFa2Cr-OOJwAC3f-8SP-132" value="customer address" style="shape=table;startSize=30;container=1;collapsible=1;childLayout=tableLayout;fixedRows=1;rowLines=0;fontStyle=1;align=center;resizeLast=1;html=1;labelBackgroundColor=none;fillColor=#F45B69;strokeColor=#028090;fontColor=#E4FDE1;" vertex="1" parent="1">
          <mxGeometry x="360" y="491" width="148" height="179" as="geometry" />
        </mxCell>
        <mxCell id="WCFa2Cr-OOJwAC3f-8SP-133" value="" style="shape=tableRow;horizontal=0;startSize=0;swimlaneHead=0;swimlaneBody=0;fillColor=none;collapsible=0;dropTarget=0;points=[[0,0.5],[1,0.5]];portConstraint=eastwest;top=0;left=0;right=0;bottom=1;labelBackgroundColor=none;strokeColor=#028090;fontColor=#E4FDE1;" vertex="1" parent="WCFa2Cr-OOJwAC3f-8SP-132">
          <mxGeometry y="30" width="148" height="30" as="geometry" />
        </mxCell>
        <mxCell id="WCFa2Cr-OOJwAC3f-8SP-134" value="PK" style="shape=partialRectangle;connectable=0;fillColor=none;top=0;left=0;bottom=0;right=0;fontStyle=1;overflow=hidden;whiteSpace=wrap;html=1;labelBackgroundColor=none;strokeColor=#028090;fontColor=#E4FDE1;" vertex="1" parent="WCFa2Cr-OOJwAC3f-8SP-133">
          <mxGeometry width="32.75" height="30" as="geometry">
            <mxRectangle width="32.75" height="30" as="alternateBounds" />
          </mxGeometry>
        </mxCell>
        <mxCell id="WCFa2Cr-OOJwAC3f-8SP-135" value="order id" style="shape=partialRectangle;connectable=0;fillColor=none;top=0;left=0;bottom=0;right=0;align=left;spacingLeft=6;fontStyle=5;overflow=hidden;whiteSpace=wrap;html=1;labelBackgroundColor=none;strokeColor=#028090;fontColor=#E4FDE1;" vertex="1" parent="WCFa2Cr-OOJwAC3f-8SP-133">
          <mxGeometry x="32.75" width="115.25" height="30" as="geometry">
            <mxRectangle width="115.25" height="30" as="alternateBounds" />
          </mxGeometry>
        </mxCell>
        <mxCell id="WCFa2Cr-OOJwAC3f-8SP-136" value="" style="shape=tableRow;horizontal=0;startSize=0;swimlaneHead=0;swimlaneBody=0;fillColor=none;collapsible=0;dropTarget=0;points=[[0,0.5],[1,0.5]];portConstraint=eastwest;top=0;left=0;right=0;bottom=0;labelBackgroundColor=none;strokeColor=#028090;fontColor=#E4FDE1;" vertex="1" parent="WCFa2Cr-OOJwAC3f-8SP-132">
          <mxGeometry y="60" width="148" height="34" as="geometry" />
        </mxCell>
        <mxCell id="WCFa2Cr-OOJwAC3f-8SP-137" value="FK" style="shape=partialRectangle;connectable=0;fillColor=none;top=0;left=0;bottom=0;right=0;editable=1;overflow=hidden;whiteSpace=wrap;html=1;labelBackgroundColor=none;strokeColor=#028090;fontColor=#E4FDE1;" vertex="1" parent="WCFa2Cr-OOJwAC3f-8SP-136">
          <mxGeometry width="32.75" height="34" as="geometry">
            <mxRectangle width="32.75" height="34" as="alternateBounds" />
          </mxGeometry>
        </mxCell>
        <mxCell id="WCFa2Cr-OOJwAC3f-8SP-138" value="customer id&lt;div&gt;order date&lt;/div&gt;" style="shape=partialRectangle;connectable=0;fillColor=none;top=0;left=0;bottom=0;right=0;align=left;spacingLeft=6;overflow=hidden;whiteSpace=wrap;html=1;labelBackgroundColor=none;strokeColor=#028090;fontColor=#E4FDE1;" vertex="1" parent="WCFa2Cr-OOJwAC3f-8SP-136">
          <mxGeometry x="32.75" width="115.25" height="34" as="geometry">
            <mxRectangle width="115.25" height="34" as="alternateBounds" />
          </mxGeometry>
        </mxCell>
        <mxCell id="WCFa2Cr-OOJwAC3f-8SP-139" value="" style="shape=tableRow;horizontal=0;startSize=0;swimlaneHead=0;swimlaneBody=0;fillColor=none;collapsible=0;dropTarget=0;points=[[0,0.5],[1,0.5]];portConstraint=eastwest;top=0;left=0;right=0;bottom=0;labelBackgroundColor=none;strokeColor=#028090;fontColor=#E4FDE1;" vertex="1" parent="WCFa2Cr-OOJwAC3f-8SP-132">
          <mxGeometry y="94" width="148" height="30" as="geometry" />
        </mxCell>
        <mxCell id="WCFa2Cr-OOJwAC3f-8SP-140" value="" style="shape=partialRectangle;connectable=0;fillColor=none;top=0;left=0;bottom=0;right=0;editable=1;overflow=hidden;whiteSpace=wrap;html=1;labelBackgroundColor=none;strokeColor=#028090;fontColor=#E4FDE1;" vertex="1" parent="WCFa2Cr-OOJwAC3f-8SP-139">
          <mxGeometry width="32.75" height="30" as="geometry">
            <mxRectangle width="32.75" height="30" as="alternateBounds" />
          </mxGeometry>
        </mxCell>
        <mxCell id="WCFa2Cr-OOJwAC3f-8SP-141" value="shipping address id&lt;div&gt;billing address id&lt;/div&gt;&lt;div&gt;&lt;br&gt;&lt;/div&gt;" style="shape=partialRectangle;connectable=0;fillColor=none;top=0;left=0;bottom=0;right=0;align=left;spacingLeft=6;overflow=hidden;whiteSpace=wrap;html=1;labelBackgroundColor=none;strokeColor=#028090;fontColor=#E4FDE1;" vertex="1" parent="WCFa2Cr-OOJwAC3f-8SP-139">
          <mxGeometry x="32.75" width="115.25" height="30" as="geometry">
            <mxRectangle width="115.25" height="30" as="alternateBounds" />
          </mxGeometry>
        </mxCell>
        <mxCell id="WCFa2Cr-OOJwAC3f-8SP-142" value="" style="shape=tableRow;horizontal=0;startSize=0;swimlaneHead=0;swimlaneBody=0;fillColor=none;collapsible=0;dropTarget=0;points=[[0,0.5],[1,0.5]];portConstraint=eastwest;top=0;left=0;right=0;bottom=0;labelBackgroundColor=none;strokeColor=#028090;fontColor=#E4FDE1;" vertex="1" parent="WCFa2Cr-OOJwAC3f-8SP-132">
          <mxGeometry y="124" width="148" height="52" as="geometry" />
        </mxCell>
        <mxCell id="WCFa2Cr-OOJwAC3f-8SP-143" value="" style="shape=partialRectangle;connectable=0;fillColor=none;top=0;left=0;bottom=0;right=0;editable=1;overflow=hidden;whiteSpace=wrap;html=1;labelBackgroundColor=none;strokeColor=#028090;fontColor=#E4FDE1;" vertex="1" parent="WCFa2Cr-OOJwAC3f-8SP-142">
          <mxGeometry width="32.75" height="52" as="geometry">
            <mxRectangle width="32.75" height="52" as="alternateBounds" />
          </mxGeometry>
        </mxCell>
        <mxCell id="WCFa2Cr-OOJwAC3f-8SP-144" value="&lt;div&gt;shipping method id&lt;/div&gt;&lt;div&gt;order total&lt;/div&gt;&lt;div&gt;order status id&lt;/div&gt;" style="shape=partialRectangle;connectable=0;fillColor=none;top=0;left=0;bottom=0;right=0;align=left;spacingLeft=6;overflow=hidden;whiteSpace=wrap;html=1;labelBackgroundColor=none;strokeColor=#028090;fontColor=#E4FDE1;" vertex="1" parent="WCFa2Cr-OOJwAC3f-8SP-142">
          <mxGeometry x="32.75" width="115.25" height="52" as="geometry">
            <mxRectangle width="115.25" height="52" as="alternateBounds" />
          </mxGeometry>
        </mxCell>
        <mxCell id="WCFa2Cr-OOJwAC3f-8SP-27" value="country" style="shape=table;startSize=30;container=1;collapsible=1;childLayout=tableLayout;fixedRows=1;rowLines=0;fontStyle=1;align=center;resizeLast=1;html=1;labelBackgroundColor=none;fillColor=#F45B69;strokeColor=#028090;fontColor=#E4FDE1;" vertex="1" parent="1">
          <mxGeometry x="-17" y="274" width="130" height="125" as="geometry" />
        </mxCell>
        <mxCell id="WCFa2Cr-OOJwAC3f-8SP-28" value="" style="shape=tableRow;horizontal=0;startSize=0;swimlaneHead=0;swimlaneBody=0;fillColor=none;collapsible=0;dropTarget=0;points=[[0,0.5],[1,0.5]];portConstraint=eastwest;top=0;left=0;right=0;bottom=1;labelBackgroundColor=none;strokeColor=#028090;fontColor=#E4FDE1;" vertex="1" parent="WCFa2Cr-OOJwAC3f-8SP-27">
          <mxGeometry y="30" width="130" height="35" as="geometry" />
        </mxCell>
        <mxCell id="WCFa2Cr-OOJwAC3f-8SP-29" value="PK" style="shape=partialRectangle;connectable=0;fillColor=none;top=0;left=0;bottom=0;right=0;fontStyle=1;overflow=hidden;whiteSpace=wrap;html=1;labelBackgroundColor=none;strokeColor=#028090;fontColor=#E4FDE1;" vertex="1" parent="WCFa2Cr-OOJwAC3f-8SP-28">
          <mxGeometry width="30" height="35" as="geometry">
            <mxRectangle width="30" height="35" as="alternateBounds" />
          </mxGeometry>
        </mxCell>
        <mxCell id="WCFa2Cr-OOJwAC3f-8SP-30" value="country id" style="shape=partialRectangle;connectable=0;fillColor=none;top=0;left=0;bottom=0;right=0;align=left;spacingLeft=6;fontStyle=5;overflow=hidden;whiteSpace=wrap;html=1;labelBackgroundColor=none;strokeColor=#028090;fontColor=#E4FDE1;" vertex="1" parent="WCFa2Cr-OOJwAC3f-8SP-28">
          <mxGeometry x="30" width="100" height="35" as="geometry">
            <mxRectangle width="100" height="35" as="alternateBounds" />
          </mxGeometry>
        </mxCell>
        <mxCell id="WCFa2Cr-OOJwAC3f-8SP-31" value="" style="shape=tableRow;horizontal=0;startSize=0;swimlaneHead=0;swimlaneBody=0;fillColor=none;collapsible=0;dropTarget=0;points=[[0,0.5],[1,0.5]];portConstraint=eastwest;top=0;left=0;right=0;bottom=0;labelBackgroundColor=none;strokeColor=#028090;fontColor=#E4FDE1;" vertex="1" parent="WCFa2Cr-OOJwAC3f-8SP-27">
          <mxGeometry y="65" width="130" height="30" as="geometry" />
        </mxCell>
        <mxCell id="WCFa2Cr-OOJwAC3f-8SP-32" value="FK" style="shape=partialRectangle;connectable=0;fillColor=none;top=0;left=0;bottom=0;right=0;editable=1;overflow=hidden;whiteSpace=wrap;html=1;labelBackgroundColor=none;strokeColor=#028090;fontColor=#E4FDE1;" vertex="1" parent="WCFa2Cr-OOJwAC3f-8SP-31">
          <mxGeometry width="30" height="30" as="geometry">
            <mxRectangle width="30" height="30" as="alternateBounds" />
          </mxGeometry>
        </mxCell>
        <mxCell id="WCFa2Cr-OOJwAC3f-8SP-33" value="country name" style="shape=partialRectangle;connectable=0;fillColor=none;top=0;left=0;bottom=0;right=0;align=left;spacingLeft=6;overflow=hidden;whiteSpace=wrap;html=1;labelBackgroundColor=none;strokeColor=#028090;fontColor=#E4FDE1;" vertex="1" parent="WCFa2Cr-OOJwAC3f-8SP-31">
          <mxGeometry x="30" width="100" height="30" as="geometry">
            <mxRectangle width="100" height="30" as="alternateBounds" />
          </mxGeometry>
        </mxCell>
        <mxCell id="WCFa2Cr-OOJwAC3f-8SP-34" value="" style="shape=tableRow;horizontal=0;startSize=0;swimlaneHead=0;swimlaneBody=0;fillColor=none;collapsible=0;dropTarget=0;points=[[0,0.5],[1,0.5]];portConstraint=eastwest;top=0;left=0;right=0;bottom=0;labelBackgroundColor=none;strokeColor=#028090;fontColor=#E4FDE1;" vertex="1" parent="WCFa2Cr-OOJwAC3f-8SP-27">
          <mxGeometry y="95" width="130" height="30" as="geometry" />
        </mxCell>
        <mxCell id="WCFa2Cr-OOJwAC3f-8SP-35" value="" style="shape=partialRectangle;connectable=0;fillColor=none;top=0;left=0;bottom=0;right=0;editable=1;overflow=hidden;whiteSpace=wrap;html=1;labelBackgroundColor=none;strokeColor=#028090;fontColor=#E4FDE1;" vertex="1" parent="WCFa2Cr-OOJwAC3f-8SP-34">
          <mxGeometry width="30" height="30" as="geometry">
            <mxRectangle width="30" height="30" as="alternateBounds" />
          </mxGeometry>
        </mxCell>
        <mxCell id="WCFa2Cr-OOJwAC3f-8SP-36" value="country code" style="shape=partialRectangle;connectable=0;fillColor=none;top=0;left=0;bottom=0;right=0;align=left;spacingLeft=6;overflow=hidden;whiteSpace=wrap;html=1;labelBackgroundColor=none;strokeColor=#028090;fontColor=#E4FDE1;" vertex="1" parent="WCFa2Cr-OOJwAC3f-8SP-34">
          <mxGeometry x="30" width="100" height="30" as="geometry">
            <mxRectangle width="100" height="30" as="alternateBounds" />
          </mxGeometry>
        </mxCell>
        <mxCell id="WCFa2Cr-OOJwAC3f-8SP-148" value="" style="endArrow=classic;html=1;rounded=0;labelBackgroundColor=none;strokeColor=#028090;fontColor=default;" edge="1" parent="1">
          <mxGeometry width="50" height="50" relative="1" as="geometry">
            <mxPoint x="126" y="34" as="sourcePoint" />
            <mxPoint x="190" y="34" as="targetPoint" />
          </mxGeometry>
        </mxCell>
        <mxCell id="WCFa2Cr-OOJwAC3f-8SP-149" value="" style="endArrow=classic;html=1;rounded=0;exitX=0.617;exitY=1.071;exitDx=0;exitDy=0;exitPerimeter=0;labelBackgroundColor=none;strokeColor=#028090;fontColor=default;" edge="1" parent="1" source="mXVCurrykyvoNQEbf8Xi-26">
          <mxGeometry width="50" height="50" relative="1" as="geometry">
            <mxPoint x="229" y="130" as="sourcePoint" />
            <mxPoint x="272" y="216" as="targetPoint" />
          </mxGeometry>
        </mxCell>
        <mxCell id="WCFa2Cr-OOJwAC3f-8SP-150" value="" style="endArrow=classic;html=1;rounded=0;entryX=-0.009;entryY=-0.001;entryDx=0;entryDy=0;entryPerimeter=0;labelBackgroundColor=none;strokeColor=#028090;fontColor=default;" edge="1" parent="1" target="WCFa2Cr-OOJwAC3f-8SP-24">
          <mxGeometry width="50" height="50" relative="1" as="geometry">
            <mxPoint x="115" y="329" as="sourcePoint" />
            <mxPoint x="229" y="336" as="targetPoint" />
          </mxGeometry>
        </mxCell>
        <mxCell id="WCFa2Cr-OOJwAC3f-8SP-152" value="" style="endArrow=none;html=1;rounded=0;exitX=1;exitY=0.5;exitDx=0;exitDy=0;entryX=0.035;entryY=0.816;entryDx=0;entryDy=0;entryPerimeter=0;labelBackgroundColor=none;strokeColor=#028090;fontColor=default;" edge="1" parent="1" source="WCFa2Cr-OOJwAC3f-8SP-21" target="WCFa2Cr-OOJwAC3f-8SP-44">
          <mxGeometry width="50" height="50" relative="1" as="geometry">
            <mxPoint x="505" y="238" as="sourcePoint" />
            <mxPoint x="485" y="254" as="targetPoint" />
          </mxGeometry>
        </mxCell>
        <mxCell id="WCFa2Cr-OOJwAC3f-8SP-153" value="" style="endArrow=none;html=1;rounded=0;entryX=0.132;entryY=1.003;entryDx=0;entryDy=0;entryPerimeter=0;exitX=0.057;exitY=-0.02;exitDx=0;exitDy=0;exitPerimeter=0;labelBackgroundColor=none;strokeColor=#028090;fontColor=default;" edge="1" parent="1" source="WCFa2Cr-OOJwAC3f-8SP-106" target="mXVCurrykyvoNQEbf8Xi-46">
          <mxGeometry width="50" height="50" relative="1" as="geometry">
            <mxPoint x="605" y="324" as="sourcePoint" />
            <mxPoint x="638" y="33" as="targetPoint" />
          </mxGeometry>
        </mxCell>
        <mxCell id="WCFa2Cr-OOJwAC3f-8SP-155" value="" style="endArrow=classic;html=1;rounded=0;entryX=0.583;entryY=1.072;entryDx=0;entryDy=0;entryPerimeter=0;labelBackgroundColor=none;strokeColor=#028090;fontColor=default;" edge="1" parent="1" target="mXVCurrykyvoNQEbf8Xi-46">
          <mxGeometry width="50" height="50" relative="1" as="geometry">
            <mxPoint x="664" y="97" as="sourcePoint" />
            <mxPoint x="714" y="47" as="targetPoint" />
          </mxGeometry>
        </mxCell>
        <mxCell id="WCFa2Cr-OOJwAC3f-8SP-159" value="" style="endArrow=classic;html=1;rounded=0;entryX=-0.001;entryY=0.153;entryDx=0;entryDy=0;exitX=1;exitY=0.5;exitDx=0;exitDy=0;entryPerimeter=0;labelBackgroundColor=none;strokeColor=#028090;fontColor=default;" edge="1" parent="1" source="mXVCurrykyvoNQEbf8Xi-30" target="mXVCurrykyvoNQEbf8Xi-46">
          <mxGeometry width="50" height="50" relative="1" as="geometry">
            <mxPoint x="508" y="-3" as="sourcePoint" />
            <mxPoint x="558" y="-53" as="targetPoint" />
          </mxGeometry>
        </mxCell>
        <mxCell id="WCFa2Cr-OOJwAC3f-8SP-162" value="" style="endArrow=classic;html=1;rounded=0;labelBackgroundColor=none;strokeColor=#028090;fontColor=default;" edge="1" parent="1">
          <mxGeometry width="50" height="50" relative="1" as="geometry">
            <mxPoint x="719" y="-19" as="sourcePoint" />
            <mxPoint x="799" y="-19" as="targetPoint" />
          </mxGeometry>
        </mxCell>
        <mxCell id="WCFa2Cr-OOJwAC3f-8SP-164" value="" style="endArrow=classic;html=1;rounded=0;entryX=0.363;entryY=-0.014;entryDx=0;entryDy=0;entryPerimeter=0;labelBackgroundColor=none;strokeColor=#028090;fontColor=default;" edge="1" parent="1" target="WCFa2Cr-OOJwAC3f-8SP-80">
          <mxGeometry width="50" height="50" relative="1" as="geometry">
            <mxPoint x="875" y="234" as="sourcePoint" />
            <mxPoint x="925" y="184" as="targetPoint" />
            <Array as="points">
              <mxPoint x="873" y="339" />
            </Array>
          </mxGeometry>
        </mxCell>
        <mxCell id="WCFa2Cr-OOJwAC3f-8SP-166" value="" style="endArrow=none;html=1;rounded=0;entryX=0.602;entryY=0.879;entryDx=0;entryDy=0;entryPerimeter=0;exitX=0.697;exitY=0.012;exitDx=0;exitDy=0;exitPerimeter=0;labelBackgroundColor=none;strokeColor=#028090;fontColor=default;" edge="1" parent="1" source="WCFa2Cr-OOJwAC3f-8SP-93" target="WCFa2Cr-OOJwAC3f-8SP-90">
          <mxGeometry width="50" height="50" relative="1" as="geometry">
            <mxPoint x="907" y="576" as="sourcePoint" />
            <mxPoint x="910" y="501" as="targetPoint" />
            <Array as="points" />
          </mxGeometry>
        </mxCell>
        <mxCell id="WCFa2Cr-OOJwAC3f-8SP-167" value="" style="endArrow=none;dashed=1;html=1;dashPattern=1 3;strokeWidth=2;rounded=0;entryX=0.371;entryY=1.094;entryDx=0;entryDy=0;entryPerimeter=0;labelBackgroundColor=none;strokeColor=#028090;fontColor=default;" edge="1" parent="1" target="WCFa2Cr-OOJwAC3f-8SP-116">
          <mxGeometry width="50" height="50" relative="1" as="geometry">
            <mxPoint x="664" y="547" as="sourcePoint" />
            <mxPoint x="662" y="540" as="targetPoint" />
            <Array as="points" />
          </mxGeometry>
        </mxCell>
        <mxCell id="WCFa2Cr-OOJwAC3f-8SP-170" value="cust order" style="shape=table;startSize=30;container=1;collapsible=1;childLayout=tableLayout;fixedRows=1;rowLines=0;fontStyle=1;align=center;resizeLast=1;html=1;labelBackgroundColor=none;fillColor=#F45B69;strokeColor=#028090;fontColor=#E4FDE1;" vertex="1" parent="1">
          <mxGeometry x="137" y="516" width="123" height="150" as="geometry" />
        </mxCell>
        <mxCell id="WCFa2Cr-OOJwAC3f-8SP-171" value="" style="shape=tableRow;horizontal=0;startSize=0;swimlaneHead=0;swimlaneBody=0;fillColor=none;collapsible=0;dropTarget=0;points=[[0,0.5],[1,0.5]];portConstraint=eastwest;top=0;left=0;right=0;bottom=1;labelBackgroundColor=none;strokeColor=#028090;fontColor=#E4FDE1;" vertex="1" parent="WCFa2Cr-OOJwAC3f-8SP-170">
          <mxGeometry y="30" width="123" height="30" as="geometry" />
        </mxCell>
        <mxCell id="WCFa2Cr-OOJwAC3f-8SP-172" value="PK" style="shape=partialRectangle;connectable=0;fillColor=none;top=0;left=0;bottom=0;right=0;fontStyle=1;overflow=hidden;whiteSpace=wrap;html=1;labelBackgroundColor=none;strokeColor=#028090;fontColor=#E4FDE1;" vertex="1" parent="WCFa2Cr-OOJwAC3f-8SP-171">
          <mxGeometry width="30" height="30" as="geometry">
            <mxRectangle width="30" height="30" as="alternateBounds" />
          </mxGeometry>
        </mxCell>
        <mxCell id="WCFa2Cr-OOJwAC3f-8SP-173" value="line id" style="shape=partialRectangle;connectable=0;fillColor=none;top=0;left=0;bottom=0;right=0;align=left;spacingLeft=6;fontStyle=5;overflow=hidden;whiteSpace=wrap;html=1;labelBackgroundColor=none;strokeColor=#028090;fontColor=#E4FDE1;" vertex="1" parent="WCFa2Cr-OOJwAC3f-8SP-171">
          <mxGeometry x="30" width="93" height="30" as="geometry">
            <mxRectangle width="93" height="30" as="alternateBounds" />
          </mxGeometry>
        </mxCell>
        <mxCell id="WCFa2Cr-OOJwAC3f-8SP-174" value="" style="shape=tableRow;horizontal=0;startSize=0;swimlaneHead=0;swimlaneBody=0;fillColor=none;collapsible=0;dropTarget=0;points=[[0,0.5],[1,0.5]];portConstraint=eastwest;top=0;left=0;right=0;bottom=0;labelBackgroundColor=none;strokeColor=#028090;fontColor=#E4FDE1;" vertex="1" parent="WCFa2Cr-OOJwAC3f-8SP-170">
          <mxGeometry y="60" width="123" height="30" as="geometry" />
        </mxCell>
        <mxCell id="WCFa2Cr-OOJwAC3f-8SP-175" value="" style="shape=partialRectangle;connectable=0;fillColor=none;top=0;left=0;bottom=0;right=0;editable=1;overflow=hidden;whiteSpace=wrap;html=1;labelBackgroundColor=none;strokeColor=#028090;fontColor=#E4FDE1;" vertex="1" parent="WCFa2Cr-OOJwAC3f-8SP-174">
          <mxGeometry width="30" height="30" as="geometry">
            <mxRectangle width="30" height="30" as="alternateBounds" />
          </mxGeometry>
        </mxCell>
        <mxCell id="WCFa2Cr-OOJwAC3f-8SP-176" value="order id&lt;div&gt;book id&lt;/div&gt;" style="shape=partialRectangle;connectable=0;fillColor=none;top=0;left=0;bottom=0;right=0;align=left;spacingLeft=6;overflow=hidden;whiteSpace=wrap;html=1;labelBackgroundColor=none;strokeColor=#028090;fontColor=#E4FDE1;" vertex="1" parent="WCFa2Cr-OOJwAC3f-8SP-174">
          <mxGeometry x="30" width="93" height="30" as="geometry">
            <mxRectangle width="93" height="30" as="alternateBounds" />
          </mxGeometry>
        </mxCell>
        <mxCell id="WCFa2Cr-OOJwAC3f-8SP-177" value="" style="shape=tableRow;horizontal=0;startSize=0;swimlaneHead=0;swimlaneBody=0;fillColor=none;collapsible=0;dropTarget=0;points=[[0,0.5],[1,0.5]];portConstraint=eastwest;top=0;left=0;right=0;bottom=0;labelBackgroundColor=none;strokeColor=#028090;fontColor=#E4FDE1;" vertex="1" parent="WCFa2Cr-OOJwAC3f-8SP-170">
          <mxGeometry y="90" width="123" height="30" as="geometry" />
        </mxCell>
        <mxCell id="WCFa2Cr-OOJwAC3f-8SP-178" value="" style="shape=partialRectangle;connectable=0;fillColor=none;top=0;left=0;bottom=0;right=0;editable=1;overflow=hidden;whiteSpace=wrap;html=1;labelBackgroundColor=none;strokeColor=#028090;fontColor=#E4FDE1;" vertex="1" parent="WCFa2Cr-OOJwAC3f-8SP-177">
          <mxGeometry width="30" height="30" as="geometry">
            <mxRectangle width="30" height="30" as="alternateBounds" />
          </mxGeometry>
        </mxCell>
        <mxCell id="WCFa2Cr-OOJwAC3f-8SP-179" value="quantity&lt;div&gt;price per&amp;nbsp; unit&lt;/div&gt;" style="shape=partialRectangle;connectable=0;fillColor=none;top=0;left=0;bottom=0;right=0;align=left;spacingLeft=6;overflow=hidden;whiteSpace=wrap;html=1;labelBackgroundColor=none;strokeColor=#028090;fontColor=#E4FDE1;" vertex="1" parent="WCFa2Cr-OOJwAC3f-8SP-177">
          <mxGeometry x="30" width="93" height="30" as="geometry">
            <mxRectangle width="93" height="30" as="alternateBounds" />
          </mxGeometry>
        </mxCell>
        <mxCell id="WCFa2Cr-OOJwAC3f-8SP-180" value="" style="shape=tableRow;horizontal=0;startSize=0;swimlaneHead=0;swimlaneBody=0;fillColor=none;collapsible=0;dropTarget=0;points=[[0,0.5],[1,0.5]];portConstraint=eastwest;top=0;left=0;right=0;bottom=0;labelBackgroundColor=none;strokeColor=#028090;fontColor=#E4FDE1;" vertex="1" parent="WCFa2Cr-OOJwAC3f-8SP-170">
          <mxGeometry y="120" width="123" height="30" as="geometry" />
        </mxCell>
        <mxCell id="WCFa2Cr-OOJwAC3f-8SP-181" value="" style="shape=partialRectangle;connectable=0;fillColor=none;top=0;left=0;bottom=0;right=0;editable=1;overflow=hidden;whiteSpace=wrap;html=1;labelBackgroundColor=none;strokeColor=#028090;fontColor=#E4FDE1;" vertex="1" parent="WCFa2Cr-OOJwAC3f-8SP-180">
          <mxGeometry width="30" height="30" as="geometry">
            <mxRectangle width="30" height="30" as="alternateBounds" />
          </mxGeometry>
        </mxCell>
        <mxCell id="WCFa2Cr-OOJwAC3f-8SP-182" value="line total" style="shape=partialRectangle;connectable=0;fillColor=none;top=0;left=0;bottom=0;right=0;align=left;spacingLeft=6;overflow=hidden;whiteSpace=wrap;html=1;labelBackgroundColor=none;strokeColor=#028090;fontColor=#E4FDE1;" vertex="1" parent="WCFa2Cr-OOJwAC3f-8SP-180">
          <mxGeometry x="30" width="93" height="30" as="geometry">
            <mxRectangle width="93" height="30" as="alternateBounds" />
          </mxGeometry>
        </mxCell>
        <mxCell id="WCFa2Cr-OOJwAC3f-8SP-183" value="" style="endArrow=none;dashed=1;html=1;rounded=0;entryX=0.037;entryY=0.992;entryDx=0;entryDy=0;entryPerimeter=0;labelBackgroundColor=none;strokeColor=#028090;fontColor=default;" edge="1" parent="1">
          <mxGeometry width="50" height="50" relative="1" as="geometry">
            <mxPoint x="244" y="511.4" as="sourcePoint" />
            <mxPoint x="248.65999999999997" y="378.0000000000001" as="targetPoint" />
          </mxGeometry>
        </mxCell>
        <mxCell id="WCFa2Cr-OOJwAC3f-8SP-184" value="" style="endArrow=classic;startArrow=classic;html=1;rounded=0;entryX=-0.012;entryY=0.283;entryDx=0;entryDy=0;entryPerimeter=0;exitX=0.997;exitY=0.652;exitDx=0;exitDy=0;exitPerimeter=0;labelBackgroundColor=none;strokeColor=#028090;fontColor=default;" edge="1" parent="1" source="WCFa2Cr-OOJwAC3f-8SP-174" target="WCFa2Cr-OOJwAC3f-8SP-139">
          <mxGeometry width="50" height="50" relative="1" as="geometry">
            <mxPoint x="259" y="593" as="sourcePoint" />
            <mxPoint x="274" y="546" as="targetPoint" />
          </mxGeometry>
        </mxCell>
        <mxCell id="WCFa2Cr-OOJwAC3f-8SP-186" value="&lt;b&gt;&lt;u&gt;MY BOOKSTORE DB&lt;/u&gt;&lt;/b&gt;" style="text;html=1;align=right;verticalAlign=middle;resizable=0;points=[];autosize=1;strokeColor=none;fillColor=none;labelBackgroundColor=none;fontColor=#E4FDE1;" vertex="1" parent="1">
          <mxGeometry x="212" y="-188" width="137" height="26" as="geometry" />
        </mxCell>
      </root>
    </mxGraphModel>
  </diagram>
</mxfile>
